<svg xmlns="http://www.w3.org/2000/svg" viewBox="0 0 425.02 386.34"><defs><style>.cls-1{fill:#fff;}.cls-2{fill:#29b190;}</style></defs><title>Love Heart symbol-01</title><g id="Ebene_2" data-name="Ebene 2"><g id="Ebene_1-2" data-name="Ebene 1"><g id="Love_Heart_symbol-01" data-name="Love Heart symbol-01"><g id="layer1"><rect id="rect2816" class="cls-1" x="87.12" y="93.03" width="242.98" height="242.98" transform="translate(-90.59 210.35) rotate(-45)"/><path id="path2820" class="cls-1" d="M249.08,126.12A124.54,124.54,0,1,1,124.53,1.59h0A124.55,124.55,0,0,1,249.08,126.12Z"/><path id="path2822" class="cls-1" d="M418.86,124.53A124.54,124.54,0,1,1,294.31,0h0A124.55,124.55,0,0,1,418.86,124.53Z"/></g><path id="Pfad_208" data-name="Pfad 208" class="cls-2" d="M242.23,115.66H361.65V364.43H242.23Z"/><path id="Pfad_206" data-name="Pfad 206" class="cls-2" d="M178.85,299.75V180.33H425V299.75Z"/><path id="Pfad_205" data-name="Pfad 205" class="cls-1" d="M193.65,284.82V195.25H410.24v89.57Z"/><path id="Pfad_207" data-name="Pfad 207" class="cls-1" d="M257.16,131.75h89.57V348.34H257.16Z"/></g></g></g></svg>