<svg xmlns="http://www.w3.org/2000/svg" viewBox="0 0 285.99 254.28"><defs><style>.cls-1{fill:#fff;}</style></defs><title>Font Awesome 5 solid leaf</title><g id="Ebene_2" data-name="Ebene 2"><g id="Ebene_1-2" data-name="Ebene 1"><path id="Font_Awesome_5_solid_leaf" data-name="Font Awesome 5 solid leaf" class="cls-1" d="M271.2,4.83c-2.78-6.21-10.73-6.46-14.06-.6C241.75,31,214.19,47.68,182.71,47.68H143A95.37,95.37,0,0,0,47.64,143a99.14,99.14,0,0,0,.74,10.18c31.69-22.69,77.42-42,142.27-42a7.95,7.95,0,1,1,0,15.89h0c-124.84,0-177.77,76.52-189.49,105.27a15.91,15.91,0,0,0,29.45,12.07c.74-1.79,10.38-23.79,35.7-45,16.09,21.8,46.68,42.6,86.85,38.33C231.12,232.16,286,162.25,286,76.64c0-24.93-5.36-50.75-14.8-71.8Z"/></g></g></svg>