<svg xmlns="http://www.w3.org/2000/svg" viewBox="0 0 138.31 150.05"><defs><style>.cls-1{fill:#fff;}</style></defs><title>path4198</title><g id="Ebene_2" data-name="Ebene 2"><g id="Ebene_1-2" data-name="Ebene 1"><path id="path4198" class="cls-1" d="M124.54,55.19a2.65,2.65,0,0,1-1.63-2.13,2.37,2.37,0,0,1,1.25-2.38A14.29,14.29,0,0,0,117,24a13.5,13.5,0,0,0-6.26,1.5,2.39,2.39,0,0,1-3.13-.88,9.85,9.85,0,0,0-12.51-3.38,2.39,2.39,0,0,1-2.25-.12,2.44,2.44,0,0,1-1.25-1.88A21.67,21.67,0,0,0,70.1,0,21.45,21.45,0,0,0,48.7,19.15,2.81,2.81,0,0,1,47.45,21a2.36,2.36,0,0,1-2.25,0,16,16,0,0,0-7.64-1.87,16.77,16.77,0,0,0-13.26,27,2.26,2.26,0,0,1,.25,2.63,2.36,2.36,0,0,1-2.38,1.25h-.5a21.53,21.53,0,1,0-.29,43.05h.79A2.3,2.3,0,0,1,24.67,95,16.63,16.63,0,0,0,40.82,107.5a16.18,16.18,0,0,0,8.39-2.25,2.38,2.38,0,0,1,3.29.81,2.25,2.25,0,0,1,.33.94,17,17,0,0,0,3,7.26l-.75,6.51-2.5,23.9a4.6,4.6,0,0,0,1.25,3.75,4.94,4.94,0,0,0,3.63,1.63H84a4.93,4.93,0,0,0,3.63-1.63,5.37,5.37,0,0,0,1.25-3.88l-3.13-24.9-.87-7a17.45,17.45,0,0,0,2.25-7.88,2.58,2.58,0,0,1,1.63-2.25,2.3,2.3,0,0,1,2.62.75,9.79,9.79,0,0,0,7.51,3.5,10.08,10.08,0,0,0,9.89-8.39,2.48,2.48,0,0,1,1-1.63,2.8,2.8,0,0,1,2-.37,21.13,21.13,0,0,0,4.88.63A21.64,21.64,0,0,0,138.3,75.46a20.89,20.89,0,0,0-13.77-20.27Zm-66.95,90.1,2.62-24.78.25-1.88,1.76-16.39-.12.13L39.44,70.58l25,17.77,6.38-37.79,3.5,20.77L99.13,53.69,76.73,85.35l4,32.54.38,3.37,3,24.16H57.59Z"/></g></g></svg>