<svg id="Ebene_1" data-name="Ebene 1" xmlns="http://www.w3.org/2000/svg" xmlns:xlink="http://www.w3.org/1999/xlink" viewBox="0 0 672 600"><defs><style>.cls-1{opacity:0.5;fill:url(#Unbenannter_Verlauf_3);}.cls-1,.cls-2{isolation:isolate;}.cls-2{opacity:0.25;fill:url(#Unbenannter_Verlauf_3-2);}.cls-3{fill:url(#Unbenannter_Verlauf_3-3);}</style><linearGradient id="Unbenannter_Verlauf_3" x1="-623.99" y1="841.24" x2="-622.91" y2="841.92" gradientTransform="matrix(581.06, 0, 0, -593.87, 362536.94, 500041.43)" gradientUnits="userSpaceOnUse"><stop offset="0" stop-color="#239b67"/><stop offset="0.39" stop-color="#45c38e"/><stop offset="0.79" stop-color="#63e7b1"/><stop offset="1" stop-color="#6ef5be"/></linearGradient><linearGradient id="Unbenannter_Verlauf_3-2" x1="-623.99" y1="841.24" x2="-622.91" y2="841.92" gradientTransform="matrix(580.97, 0, 0, -593.88, 362442.55, 500054.02)" xlink:href="#Unbenannter_Verlauf_3"/><linearGradient id="Unbenannter_Verlauf_3-3" x1="-623.99" y1="841.24" x2="-622.91" y2="841.92" gradientTransform="matrix(581.08, 0, 0, -593.94, 362601.84, 500108.98)" xlink:href="#Unbenannter_Verlauf_3"/></defs><title>DynamischeFigur</title><g id="DynamsichesM채nnchen_Zeichenfl채che_1" data-name="DynamsichesM채nnchen Zeichenfl채che 1"><path id="Pfad_219" data-name="Pfad 219" class="cls-1" d="M335.55,327.61c12.06,8.56,53.42,30.93,61.43,30.93-26.1,7.74-42.17,17.51-55.42,17.51s-50.62,4-59.05,0C299.41,366.68,335.55,327.61,335.55,327.61ZM517.11,146.13c6.42,5.7,6.42,23.6,19.28,9.77,9.63-2.44,14.46-9,17.66-9.77,12.05,1.63,12.89-5.7,12.89-9.77s4-7.33,7.22-7.33,6.43-9.75,8-17.06S583,72.9,562.11,65.59s-40.2-1.66-45,12.16-8,29.31-12.06,26.1-8-1.63-8-8.14-14.46-26-28.12-33.37C456,40.33,440,33.82,434.36,28.13S418.3,7.77,411.88,7s.79-6.5-5.63-7.31-91.58-2.44-114.88,0-46.24-2.19-53.82,2.44c-4,2.45-3.21,4.89-7.22,5.7s-11.26,8.14-10.9,12.62C212.2,22,205,28.94,207.79,30.56s17.66-5.29,22.1-3.66S214.61,38.29,213,40.73s1.21,5.69,6.42,4.08S240,33,249.18,35,256,37.89,257.23,42s-10,8.95-9.63,16.72,4.43,8.54,6.82,3.65,7.64-12.2,14.07-13,7.39-16.2,14.46-21.57c4.83-3.66,34.14-1.22,47.4,1.64s53.42.4,61.06,6.5S395,56.61,407.07,66.38s24.5,26.86,26.5,30.11c-11.64,9.36-37,31.33-43.38,41.48s-27.74,40.7-30.52,42.74c0,6.5-10.45,15-18.08,17.9s-16.84,11-21.29,14.25c-6.43,0-6.82,1.21-9.23,4.07-4.42,1.63-9.24,8.13-11.25,11.38,3.22,1.63,3.22.42.4,3.26S283,255.18,278.93,274.73c-10.84,14.23-22.79,25.57-27.74,30.52-16.07,16.28-30.12,58.6-34.95,63.48S172.05,395.18,162,407.8s-8.43,18.71-10.44,20.75-55.38,59.4-61,56.95S58.42,478.17,54,479.4c-2.4,12.21-6.82,32.56-6,39.88s-3.22,19.94-5.22,30.12-3.62,35.4,6.86,41.91,13.66-24.43,15.26-25.65,21.3-22.37,24.5-29.7,17.67-20.75,25.31-28.89,81.52-71.27,95.19-77.73,26.51-13,32.93-17.9c2.82,19.12,15.68,71.21,32.54,73.65s9.63-9.76,9.63-17.91-2.4-15.46,1.62-19.54.4-11.79,3.21-17.48,14.05-11.8,13.26-13.85-6.83-3.25.79-4,85.16-1.22,108.05,0,28.91-4.87,40.17-4,13.26-5.29,17.68-6.12,16.85-12.6,10-33.36-52.21-80.17-69.08-90.75c-1.21-17.06-3.21-11.39.4-14.24s26.92-12.62,35.75-22,17.27-7.73,26.12-14.65,22.49-22,26.91-22.78,37.76,44.35,54.22,49.64,10,20.08,37.36,17.91c10-.82,15.85-39.76,18.06-52.09,1.61-9,5.63-43.54,6.43-48.84s6.79-20,6.36-22.46-2-8.55-1.6-15.47,1.21-26.44,0-27.67-7.23-2.85-6.43,3.26a61.12,61.12,0,0,1,0,15c-2.82.4-4.42-14.85-4-19.33s-4.42-18.92-4.81.6c-.67,32.12-1.21,15.47-1.21,16.69-2.83.82-2.83-9-2.83-13s1.22-15-1.19-16.27-7.22-.82-6.83,7.32,2,16.28,2,18.72v5.29c-2.35,1.23-4.77-15.44-4.77-17.48s-7.23-21.56-6,0,2,15.47,3.21,18.32,1.21,11.39.41,14.24c-4-5.29-2-9.76-4.83-11s-9.63-2-6.82,8.55,12.45,19.12,15.27,23.19,2,19.94-.4,27.67-12.88,28.11-14.87,36.22c-4.82-8.54-22.08-18.71-29.31-22s2.8-19.52-22.1-38.65-8-16.68-8-16.68Z"/><path id="Pfad_220" data-name="Pfad 220" class="cls-2" d="M294.27,327.61c12.05,8.56,53.41,30.93,61.43,30.93-26.12,7.74-42.18,17.51-55.44,17.51s-50.61,4-59,0C258.11,366.68,294.27,327.61,294.27,327.61ZM475.81,146.13c6.43,5.7,6.43,23.6,19.29,9.77,9.64-2.45,14.46-9,17.66-9.77,12.06,1.63,12.88-5.7,12.88-9.77s4-7.32,7.22-7.32,6.42-9.76,8-17.07.81-39.07-20.09-46.38-40.17-1.66-45,12.16-8,29.31-12.05,26.1-8-1.63-8-8.14-14.45-26-28.12-33.36c-12.88-22-28.91-28.53-34.54-34.22S377,7.77,370.58,7s.8-6.5-5.63-7.31-91.57-2.44-114.86,0-46.22-2.19-53.82,2.44c-4,2.45-3.22,4.89-7.24,5.7S177.79,15.92,178.2,20.4C171,22,163.74,28.94,166.54,30.57s17.68-5.29,22.1-3.66S173.37,38.3,171.79,40.74s1.21,5.69,6.43,4.08S198.7,33,208,35.05s6.83,2.85,8,6.92-10.07,8.94-9.67,16.71,4.42,8.54,6.83,3.65,7.63-12.2,14.06-13,7.38-16.2,14.47-21.58c4.8-3.66,34.13-1.22,47.41,1.64s53.41.4,61,6.5,3.62,20.75,15.68,30.52,24.49,26.86,26.5,30.11c-11.66,9.35-37,31.34-43.39,41.5s-27.75,40.7-30.52,42.74c0,6.5-10.44,15.05-18.08,17.9s-16.85,11-21.28,14.25c-6.43,0-6.82,1.21-9.24,4.07-4.42,1.63-9.23,8.13-11.24,11.38,3.22,1.63,3.22.42.4,3.26s-17.26,23.61-21.29,43.16c-10.85,14.23-22.79,25.57-27.74,30.52-16.06,16.28-30.12,58.6-34.94,63.48s-44.19,26.45-54.22,39.07-8.44,18.71-10.45,20.75S54.9,488,49.3,485.51s-32.13-7.33-36.55-6.1c-2.41,12.2-6.83,32.55-6,39.88S3.52,539.22,1.5,549.4s-3.6,35.41,6.83,41.93S22,566.89,23.54,565.66,44.82,543.3,48,536s17.68-20.75,25.31-28.89,81.53-71.26,95.2-77.72,26.5-13.05,32.93-17.91c2.8,19.13,15.67,71.21,32.53,73.66s9.64-9.77,9.64-17.92-2.41-15.45,1.61-19.53.4-11.79,3.21-17.49,14.06-11.8,13.25-13.85-6.82-3.24.8-4,85.15-1.23,108,0,28.92-4.87,40.17-4,13.26-5.29,17.68-6.11,16.84-12.61,10-33.37-52.2-80.16-69.08-90.74c-1.21-17.06-3.21-11.39.4-14.24s26.91-12.62,35.75-22,17.27-7.73,26.11-14.64,22.49-22,26.92-22.79,37.75,44.36,54.21,49.65,10,20.08,37.36,17.91c10-.83,15.85-39.76,18.07-52.09,1.6-9,5.62-43.54,6.42-48.84s6.84-19.94,6.43-22.38-2-8.54-1.6-15.47,1.21-26.44,0-27.66-7.23-2.85-6.42,3.25a62.2,62.2,0,0,1,0,15.06c-2.83.4-4.42-14.86-4-19.33s-4.43-18.92-4.81.6c-.67,32.12-1.21,15.46-1.21,16.69-2.82.81-2.82-9-2.82-13.05s1.2-15.06-1.2-16.27-7.23-.82-6.83,7.32,2,16.28,2,18.72v5.29c-2.4,1.21-4.8-15.47-4.8-17.51s-7.25-21.56-6,0,2,15.47,3.21,18.32,1.21,11.38.41,14.23c-4-5.29-2-9.75-4.83-11s-9.64-2-6.82,8.56,12.44,19.12,15.26,23.18,2,20-.4,27.68-12.88,28.1-14.86,36.21c-4.83-8.53-22.1-18.71-29.33-22s2.81-19.52-22.1-38.66-7.93-16.73-7.93-16.73Z"/><path id="Pfad_221" data-name="Pfad 221" class="cls-3" d="M385.38,335.45c12.06,8.55,53.42,30.92,61.43,30.92-26.11,7.74-42.17,17.51-55.48,17.51s-50.61,4-59,0C349.23,374.51,385.38,335.45,385.38,335.45ZM566.94,154c6.42,5.7,6.42,23.6,19.28,9.77,9.64-2.44,14.47-8.95,17.66-9.77,12.06,1.63,12.88-5.7,12.88-9.77s4-7.32,7.23-7.32,6.43-9.76,8-17.07.81-39.07-20.07-46.38-40.18-1.63-45,12.2-8,29.3-12.05,26.1-8-1.63-8-8.14-14.47-26-28.13-33.4c-12.88-22-28.91-28.53-34.54-34.22S468.13,15.61,461.7,14.79s.8-6.5-5.62-7.32S364.5,5,341.2,7.47,295,5.3,287.38,9.92c-4,2.44-3.22,4.87-7.23,5.69S268.9,23.75,269.3,28.23c-7.22,1.62-14.45,8.54-11.64,10.16s17.67-5.29,22.1-3.66-15.27,11.39-16.87,13.83,1.21,5.69,6.42,4.08S289.8,40.84,299,42.87s6.83,2.85,8,6.92-10,9-9.64,16.69,4.42,8.54,6.82,3.66,7.64-12.21,14.07-13,7.39-16.19,14.46-21.56c4.81-3.65,34.14-1.22,47.4,1.65s53.41.4,61.05,6.5,3.61,20.75,15.67,30.52,24.5,26.86,26.5,30.12c-11.64,9.35-37,31.33-43.38,41.5s-27.74,40.7-30.52,42.73c0,6.5-10.45,15.06-18.08,17.91s-16.84,11-21.29,14.25c-6.43,0-6.82,1.22-9.24,4.07-4.41,1.63-9.23,8.13-11.24,11.38,3.22,1.63,3.22.42.4,3.27s-17.27,23.6-21.29,43.16C317.92,296.82,306,308.16,301,313.11c-16.07,16.28-30.13,58.6-34.95,63.48S221.88,403,211.84,415.66s-8.41,18.68-10.39,20.72-55.49,59.41-61.07,57-32.13-7.33-36.56-6.1c-2.44,12.21-6.82,32.55-6,39.93s-3.22,19.93-5.22,30.11S89,592.7,99.41,599.22s13.67-24.44,15.27-25.67,21.28-22.36,24.5-29.7,17.66-20.74,25.3-28.88,81.53-71.22,95.19-77.73,26.52-13.05,32.94-17.91c2.8,19.14,15.66,71.21,32.54,73.66s9.63-9.76,9.63-17.91-2.41-15.46,1.6-19.54.41-11.79,3.22-17.49,14-11.8,13.26-13.85-6.83-3.24.79-4,85.15-1.24,108.05,0,28.91-4.88,40.17-4.07,13.26-5.29,17.69-6.11,16.84-12.61,10-33.37-52.2-80.16-69.08-90.74c-1.21-17.06-3.21-11.39.4-14.24s26.92-12.62,35.75-22,17.27-7.73,26.12-14.64,22.5-22,26.91-22.89,37.76,44.36,54.22,49.65,10,20.13,37.35,17.91c10-.83,15.85-39.76,18.07-52.09,1.61-9,5.63-43.54,6.43-48.83s6.83-19.95,6.43-22.39-2-8.54-1.61-15.47,1.21-26.44,0-27.66-7.22-2.85-6.42,3.25a62.2,62.2,0,0,1,0,15.06c-2.82.4-4.42-14.86-4-19.33s-4.42-18.93-4.82.61c-.66,32.12-1.21,15.46-1.21,16.68-2.82.81-2.82-9-2.82-13s1.21-15.06-1.19-16.27-7.22-.82-6.84,7.32,2,16.28,2,18.72v5.29c-2.4,1.21-4.81-15.47-4.81-17.51s-7.23-21.56-6,0,2,15.47,3.21,18.32,1.2,11.39.4,14.24c-4-5.29-2-9.76-4.82-11s-9.64-2-6.82,8.55,12.44,19.07,15.26,23.19,2,19.94-.4,27.67-12.88,28.11-14.86,36.22c-4.83-8.54-22.1-18.71-29.32-22s2.8-19.53-22.1-38.66-8-16.65-8-16.65Z"/></g></svg>