<svg id="Ebene_1" data-name="Ebene 1" xmlns="http://www.w3.org/2000/svg" xmlns:xlink="http://www.w3.org/1999/xlink" viewBox="0 0 1350.67 415.65"><defs><style>.cls-1{fill:lime;}.cls-2{fill:#fff;}.cls-3{fill:#007f68;}.cls-4{fill:url(#Unbenannter_Verlauf);}.cls-5{isolation:isolate;}.cls-6{fill:#ccc;}.cls-7{fill:#4d4d4d;}.cls-8{fill:url(#Unbenannter_Verlauf_2);}.cls-9{fill:url(#Unbenannter_Verlauf_3);}.cls-10{fill:none;}</style><linearGradient id="Unbenannter_Verlauf" x1="150.88" y1="248.09" x2="150.88" y2="418.17" gradientTransform="matrix(1, 0, 0, -1, 0, 418)" gradientUnits="userSpaceOnUse"><stop offset="0" stop-color="#76ffbb"/><stop offset="1" stop-color="#15c0b8"/></linearGradient><linearGradient id="Unbenannter_Verlauf_2" x1="146.16" y1="329.29" x2="146.16" y2="13" xlink:href="#Unbenannter_Verlauf"/><linearGradient id="Unbenannter_Verlauf_3" x1="74.72" y1="150.57" x2="111.97" y2="113.32" gradientTransform="matrix(1, 0, 0, -1, 0, 418)" gradientUnits="userSpaceOnUse"><stop offset="0" stop-color="#76ffbb"/><stop offset="1" stop-color="#15c0b8" stop-opacity="0.6"/></linearGradient></defs><title>Logo &amp;amp; Text</title><path class="cls-1" d="M84.8,103.6c0,.56-.13,7.94-.12,8.77A64.9,64.9,0,0,1,84.8,103.6Z"/><rect class="cls-2" x="69.39" y="37.13" width="173.04" height="82.62"/><polygon class="cls-2" points="153.72 102.17 246.29 131.58 303.26 209.33 302.87 305.71 245.27 383.92 152.46 414.07 59.89 384.66 2.92 306.91 3.31 210.53 60.91 132.32 153.72 102.17"/><path class="cls-1" d="M84.8,103.6c0,.56-.13,7.94-.12,8.77A64.9,64.9,0,0,1,84.8,103.6Z"/><path class="cls-3" d="M300.5,81v71.9c-2.11,2.89-9.48,13-11.48,15.8l-10.5-14.15,4.73-6.66-.43-70.19-40.91-57L184.37.51c2.11-2.59,71.14,22,73.86,22.33Z"/><path class="cls-4" d="M289,168.7l-.88,1.21c-11-15-25.84-35.25-36.93-50.39-7.93-2.51-17.83-5.74-26-8.34.07-5.9.28-18.12.33-24.09-.82-1.15-18.83-26.69-19.76-28l-11.19-3.82c-35.53-15-64.41-5.43-89,2.9l-.48.65h0l-20,26.79c0,11-.43,14.65-.41,26.28C77,114.41,67,117.69,59.1,120.32l-34.59,48-11.75-16V80.39C22.55,66.89,45.61,35.13,55,22.22,83.38,14.89,113.42-2.17,142.42.14c56.31-2.45,64.72,10.23,99.48,20.51L282.82,77.7l.43,70.19-4.73,6.66Z"/><path class="cls-1" d="M84.8,103.6c0,.56-.13,7.94-.12,8.77A64.9,64.9,0,0,1,84.8,103.6Z"/><path class="cls-1" d="M84.8,103.6c0,.56-.13,7.94-.12,8.77A64.9,64.9,0,0,1,84.8,103.6Z"/><g class="cls-5"><path class="cls-6" d="M434.5,221.48H397.76v63.27H377V128.34H428.8q26.43,0,40.66,12t14.24,35q0,14.61-7.9,25.46t-22,16.22l36.74,66.39v1.29H468.44Zm-36.74-16.87h31.69q15.36,0,24.44-8T463,175.34q0-14.52-8.64-22.27t-25-7.86H397.76Z"/></g><g class="cls-5"><path class="cls-6" d="M551.55,286.9q-23.62,0-38.46-15.52t-14.82-41.52v-3.65q0-17.29,6.61-30.89a51.51,51.51,0,0,1,18.47-21.27,46.48,46.48,0,0,1,25.73-7.68q22.67,0,35.24,14.93t12.56,42.76v8.27H518.14q.43,17.19,10.05,27.77t24.44,10.58q10.51,0,17.83-4.3A44.65,44.65,0,0,0,583.24,255l12.14,9.46Q580.77,286.91,551.55,286.9Zm-2.47-104.2a26.51,26.51,0,0,0-20.19,8.75q-8.17,8.76-10.1,24.55H577v-1.5q-.85-15.15-8.16-23.48T549.08,182.7Z"/></g><g class="cls-5"><path class="cls-6" d="M650.67,257.79l28.79-89.27h20.3L658.08,284.75H642.93l-42.1-116.23h20.3Z"/><path class="cls-6" d="M712.39,137.69a11.85,11.85,0,0,1,3-8.16q3-3.33,8.76-3.33t8.81,3.33a11.75,11.75,0,0,1,3,8.16,11.38,11.38,0,0,1-3,8.06q-3,3.21-8.81,3.22c-3.87,0-6.79-1.08-8.76-3.22A11.48,11.48,0,0,1,712.39,137.69Zm21.48,147.06H714V168.52h19.87Z"/><path class="cls-6" d="M786,140.38v28.14h21.7v15.36H786v72.17q0,7,2.9,10.49t9.89,3.49a48.07,48.07,0,0,0,9.45-1.29v16A57.68,57.68,0,0,1,793,286.9q-13.34,0-20.09-8.06T766.16,256V183.88H745V168.52h21.16V140.38Z"/><path class="cls-6" d="M896.09,284.75q-1.71-3.44-2.79-12.25-13.86,14.4-33.09,14.4-17.18,0-28.19-9.72a31.43,31.43,0,0,1-11-24.66q0-18.15,13.8-28.19t38.83-10.05H893v-9.13q0-10.41-6.23-16.6t-18.37-6.17q-10.64,0-17.83,5.37t-7.2,13h-20q0-8.7,6.18-16.82A42.14,42.14,0,0,1,846.3,171.1a56.43,56.43,0,0,1,23.26-4.73q20.09,0,31.48,10t11.81,27.66v53.49q0,16,4.08,25.46v1.72Zm-33-15.15a35,35,0,0,0,17.72-4.83A29.21,29.21,0,0,0,893,252.2V228.35H877.4q-36.52,0-36.52,21.38,0,9.35,6.23,14.61T863.12,269.6Z"/><path class="cls-6" d="M959,284.75H939.12v-165H959Z"/><path class="cls-6" d="M984.3,137.69a11.85,11.85,0,0,1,3-8.16q3-3.33,8.76-3.33t8.81,3.33a11.76,11.76,0,0,1,3,8.16,11.39,11.39,0,0,1-3,8.06q-3,3.21-8.81,3.22c-3.87,0-6.79-1.08-8.76-3.22A11.48,11.48,0,0,1,984.3,137.69Zm21.48,147.06H985.91V168.52h19.87Z"/></g><g class="cls-5"><path class="cls-6" d="M1052.31,268.53h68v16.22H1028V270.14L1092.16,185H1029V168.52h88.09v14.07Z"/></g><g class="cls-5"><path class="cls-6" d="M1183,286.9q-23.62,0-38.46-15.52t-14.82-41.52v-3.65q0-17.29,6.61-30.89a51.51,51.51,0,0,1,18.47-21.27,46.45,46.45,0,0,1,25.73-7.68q22.67,0,35.24,14.93t12.56,42.76v8.27h-78.74q.44,17.19,10.05,27.77t24.44,10.58q10.51,0,17.83-4.3A44.65,44.65,0,0,0,1214.69,255l12.14,9.46Q1212.22,286.91,1183,286.9Zm-2.47-104.2a26.51,26.51,0,0,0-20.19,8.75q-8.17,8.76-10.1,24.55h58.22v-1.5q-.86-15.15-8.16-23.48T1180.53,182.7Z"/><path class="cls-6" d="M1245.15,274.33a12.43,12.43,0,0,1,3.06-8.59q3.06-3.44,9.19-3.44t9.29,3.44a12.19,12.19,0,0,1,3.17,8.59,11.53,11.53,0,0,1-3.17,8.27q-3.17,3.33-9.29,3.33t-9.19-3.33A11.75,11.75,0,0,1,1245.15,274.33Z"/></g><g class="cls-5"><path class="cls-7" d="M434.5,214.64H397.76v63.27H377V121.5H428.8q26.43,0,40.66,12t14.24,35q0,14.61-7.9,25.46t-22,16.22l36.74,66.39v1.29H468.44Zm-36.74-16.87h31.69q15.36,0,24.44-8T463,168.5q0-14.52-8.64-22.27t-25-7.86H397.76Z"/></g><g class="cls-5"><path class="cls-7" d="M551.55,280.06q-23.62,0-38.46-15.52T498.27,223v-3.65q0-17.3,6.61-30.89a51.51,51.51,0,0,1,18.47-21.27,46.48,46.48,0,0,1,25.73-7.68q22.67,0,35.24,14.93t12.56,42.76v8.27H518.14q.43,17.19,10.05,27.77t24.44,10.58q10.51,0,17.83-4.3a44.65,44.65,0,0,0,12.78-11.39l12.14,9.46Q580.77,280.06,551.55,280.06Zm-2.47-104.2a26.51,26.51,0,0,0-20.19,8.75q-8.17,8.76-10.1,24.55H577v-1.5q-.85-15.15-8.16-23.48T549.08,175.86Z"/></g><g class="cls-5"><path class="cls-7" d="M650.67,251l28.79-89.27h20.3L658.08,277.91H642.93l-42.1-116.23h20.3Z"/><path class="cls-7" d="M712.39,130.85a11.85,11.85,0,0,1,3-8.16q3-3.33,8.76-3.33t8.81,3.33a11.75,11.75,0,0,1,3,8.16,11.38,11.38,0,0,1-3,8.06q-3,3.21-8.81,3.22c-3.87,0-6.79-1.08-8.76-3.22A11.48,11.48,0,0,1,712.39,130.85Zm21.48,147.06H714V161.68h19.87Z"/><path class="cls-7" d="M786,133.54v28.14h21.7V177H786v72.17q0,7,2.9,10.49t9.89,3.49a48.07,48.07,0,0,0,9.45-1.29v16A57.68,57.68,0,0,1,793,280.06q-13.34,0-20.09-8.06t-6.77-22.88V177H745V161.68h21.16V133.54Z"/><path class="cls-7" d="M896.09,277.91q-1.71-3.44-2.79-12.25-13.86,14.4-33.09,14.4-17.18,0-28.19-9.72a31.43,31.43,0,0,1-11-24.66q0-18.15,13.8-28.19t38.83-10.05H893v-9.13q0-10.41-6.23-16.6t-18.37-6.17q-10.64,0-17.83,5.37t-7.2,13h-20q0-8.7,6.18-16.82a42.14,42.14,0,0,1,16.75-12.83,56.43,56.43,0,0,1,23.26-4.73q20.09,0,31.48,10.05t11.81,27.66v53.49q0,16,4.08,25.46v1.72Zm-33-15.15a35,35,0,0,0,17.72-4.83A29.21,29.21,0,0,0,893,245.36V221.51H877.4q-36.52,0-36.52,21.38,0,9.35,6.23,14.61T863.12,262.76Z"/><path class="cls-7" d="M959,277.91H939.12v-165H959Z"/><path class="cls-7" d="M984.3,130.85a11.85,11.85,0,0,1,3-8.16q3-3.33,8.76-3.33t8.81,3.33a11.76,11.76,0,0,1,3,8.16,11.39,11.39,0,0,1-3,8.06q-3,3.21-8.81,3.22c-3.87,0-6.79-1.08-8.76-3.22A11.48,11.48,0,0,1,984.3,130.85Zm21.48,147.06H985.91V161.68h19.87Z"/></g><g class="cls-5"><path class="cls-7" d="M1052.31,261.69h68v16.22H1028V263.3l64.13-85.18H1029V161.68h88.09v14.07Z"/></g><g class="cls-5"><path class="cls-7" d="M1183,280.06q-23.62,0-38.46-15.52T1129.72,223v-3.65q0-17.3,6.61-30.89a51.51,51.51,0,0,1,18.47-21.27,46.45,46.45,0,0,1,25.73-7.68q22.67,0,35.24,14.93t12.56,42.76v8.27h-78.74q.44,17.19,10.05,27.77t24.44,10.58q10.51,0,17.83-4.3a44.65,44.65,0,0,0,12.78-11.39l12.14,9.46Q1212.22,280.06,1183,280.06Zm-2.47-104.2a26.51,26.51,0,0,0-20.19,8.75q-8.17,8.76-10.1,24.55h58.22v-1.5q-.86-15.15-8.16-23.48T1180.53,175.86Z"/><path class="cls-7" d="M1245.15,267.49a12.43,12.43,0,0,1,3.06-8.59q3.06-3.43,9.19-3.44t9.29,3.44a12.19,12.19,0,0,1,3.17,8.59,11.53,11.53,0,0,1-3.17,8.27q-3.17,3.33-9.29,3.33t-9.19-3.33A11.75,11.75,0,0,1,1245.15,267.49Z"/></g><path class="cls-1" d="M84.8,103.6c0,.56-.13,7.94-.12,8.77A64.9,64.9,0,0,1,84.8,103.6Z"/><path class="cls-3" d="M311.37,302c-14.39,20-45,62.49-59,82l-96,31.63L123.17,405,227,370.78,292.16,282l.17-106.42c4.87,6.63,13.68,18.67,18.61,25.38C311,222.88,311.27,279.91,311.37,302Z"/><path class="cls-8" d="M292.33,175.62,292.16,282,227,370.78,123.17,405c-15.77-5.06-47.34-15.14-63-20.13l-.57-.78C167.81,393.54,258.07,309.5,261.91,206h0a190.41,190.41,0,0,0-3.58-44.62C141.61,121.53,23.69,201.69,12,319.18L.43,303.36,0,202.33c14.19-19.75,44.88-62.36,59-82,7.57-2.51,17.78-5.86,25.61-8.44a3.69,3.69,0,0,0,0,.47v-.48c17.61-5.81,53-17.47,70.35-23.17,29.11,9.26,67.2,21.47,96.18,30.84C263.94,136.92,279.48,158.25,292.33,175.62Z"/><path class="cls-1" d="M84.68,111.89v.48C84.67,112.21,84.68,112.37,84.68,111.89Z"/><path class="cls-9" d="M164.28,229.38A186.41,186.41,0,0,0,48.17,368.48C27.62,298.21,92.05,225.85,164.28,229.38Z"/><path class="cls-1" d="M84.8,103.6c0,.56-.13,7.94-.12,8.77A64.9,64.9,0,0,1,84.8,103.6Z"/><path class="cls-10" d="M225.58,87.1c-.1,5.41-.27,18.88-.35,24.1L155,88.71,84.68,111.89c.08-5.32.3-20.65.38-26.29L105.6,58.16c50.09-19.21,75.45-8.2,100.22.93Z"/><path class="cls-1" d="M84.8,103.6c0,.56-.13,7.94-.12,8.77A64.9,64.9,0,0,1,84.8,103.6Z"/><line class="cls-10" x1="125.89" x2="123.4" y2="0.91"/><polygon class="cls-3" points="278.57 154.48 289.29 168.33 288.14 169.91 277.63 155.63 278.57 154.48"/></svg>