<svg id="Ebene_1" data-name="Ebene 1" xmlns="http://www.w3.org/2000/svg" xmlns:xlink="http://www.w3.org/1999/xlink" viewBox="0 0 1276.9 415.65"><defs><style>.cls-1{fill:lime;}.cls-2{fill:#007f68;}.cls-3{fill:url(#Unbenannter_Verlauf_7);}.cls-4,.cls-9{font-size:220px;font-family:Roboto-Regular, Roboto;letter-spacing:-0.03em;}.cls-4{fill:#ccc;}.cls-5{letter-spacing:-0.03em;}.cls-6{letter-spacing:-0.03em;}.cls-7{letter-spacing:-0.04em;}.cls-8{letter-spacing:-0.03em;}.cls-9{fill:#4d4d4d;}.cls-10{fill:url(#Unbenannter_Verlauf_7-2);}.cls-11{fill:url(#Unbenannter_Verlauf_7-3);}.cls-12{fill:none;}</style><linearGradient id="Unbenannter_Verlauf_7" x1="150.89" y1="169.91" x2="150.89" gradientUnits="userSpaceOnUse"><stop offset="0" stop-color="#76ffbb"/><stop offset="1" stop-color="#15c0b8" stop-opacity="0.6"/></linearGradient><linearGradient id="Unbenannter_Verlauf_7-2" x1="146.17" y1="88.71" x2="146.17" y2="405.01" xlink:href="#Unbenannter_Verlauf_7"/><linearGradient id="Unbenannter_Verlauf_7-3" x1="74.52" y1="267.22" x2="111.97" y2="304.67" xlink:href="#Unbenannter_Verlauf_7"/></defs><title>Logo</title><path class="cls-1" d="M84.8,103.6l-.12,8.29v.48a3.59,3.59,0,0,1,0-.47c-.06-1-.08-2-.08-3C84.57,107.1,84.65,105.34,84.8,103.6Z"/><path class="cls-1" d="M84.8,103.6l-.12,8.29v.48a3.59,3.59,0,0,1,0-.47c-.06-1-.08-2-.08-3C84.57,107.1,84.65,105.34,84.8,103.6Z"/><polygon class="cls-2" points="300.5 81 300.5 152.9 297.6 156.89 297.45 157.09 289.02 168.7 278.52 154.55 283.25 147.89 282.82 77.7 241.91 20.65 184.37 0.51 186.94 0.52 189.86 0.62 258.23 22.84 282.09 55.67 300.5 81"/><path class="cls-3" d="M289,168.7l-.88,1.21-10.42-14.23-1.58-2.15-13.25-18.07-11.68-15.94-8-2.55L234,114l-7.31-2.34-1.5-.48.21-15,.12-8.26,0-.83-1.76-2.49-18-25.52-11.19-3.82h0l-7.07-2.41c-.68-.25-1.37-.49-2.06-.7L173.37,48h-35L105.6,58.16l-.48.65h0l-20,26.79-.26,18c-.15,1.74-.23,3.5-.23,5.28,0,1,0,2,.08,3l-5.43,1.79-8.52,2.8-9.36,3.09-2.3.76-34.59,48L12.76,152.28V80.39l26.85-37,.15-.2L55,22.22l6.57-2.14L84.3,12.71,123.4,0h2.49l41.39.36,17.09.15L241.9,20.65,282.82,77.7l.43,70.19-4.73,6.66Z"/><path class="cls-1" d="M84.8,103.6l-.12,8.29v.48a3.59,3.59,0,0,1,0-.47c-.06-1-.08-2-.08-3C84.57,107.1,84.65,105.34,84.8,103.6Z"/><path class="cls-1" d="M84.8,103.6l-.12,8.29v.48a3.59,3.59,0,0,1,0-.47c-.06-1-.08-2-.08-3C84.57,107.1,84.65,105.34,84.8,103.6Z"/><text class="cls-4" transform="translate(358.98 284.75)">R<tspan class="cls-5" x="129.3" y="0">e</tspan><tspan class="cls-6" x="238.3" y="0">vitali</tspan><tspan class="cls-7" x="659.6" y="0">z</tspan><tspan class="cls-8" x="760.75" y="0">e.</tspan></text><text class="cls-9" transform="translate(358.98 277.91)">R<tspan class="cls-5" x="129.3" y="0">e</tspan><tspan class="cls-6" x="238.3" y="0">vitali</tspan><tspan class="cls-7" x="659.6" y="0">z</tspan><tspan class="cls-8" x="760.75" y="0">e.</tspan></text><path class="cls-1" d="M84.8,103.6l-.12,8.29v.48a3.59,3.59,0,0,1,0-.47c-.06-1-.08-2-.08-3C84.57,107.1,84.65,105.34,84.8,103.6Z"/><polygon class="cls-2" points="311.37 302.03 276.87 349.94 252.34 384.02 156.38 415.65 123.17 405.01 227 370.78 292.16 282.04 292.33 175.62 294.41 178.45 304.57 192.32 304.78 192.6 310.94 201 311.08 235.06 311.37 302.03"/><path class="cls-10" d="M292.33,175.62,292.16,282,227,370.78,123.17,405l-27.35-8.76-1.18-.37-34.47-11-.57-.78.13,0q8,.69,16.2.69A186.18,186.18,0,0,0,248.25,269.13a185,185,0,0,0,12.66-49.71q.73-6.64,1-13.41h0q.13-3.66.14-7.36a187.65,187.65,0,0,0-1-19.51q-.94-9-2.72-17.75Q251.27,158.92,244,157c-3.79-1-7.62-1.84-11.5-2.57a186,186,0,0,0-35.16-3.33h-.19a186.41,186.41,0,0,0-37.23,3.77A184.52,184.52,0,0,0,111,172.29q-6.4,3.35-12.49,7.18c-.93.58-1.86,1.17-2.77,1.77A186.38,186.38,0,0,0,12,319.18L.43,303.36,0,202.33l24.45-34,34.59-48,2.3-.76,9.36-3.09,8.52-2.8,5.43-1.79a3.59,3.59,0,0,0,0,.47v-.48l35.19-11.6L155,88.71,190.38,100l34.85,11.16,1.5.48L234,114l9.18,3,8,2.55,11.68,15.94,13.25,18.07,1.58,2.15,10.42,14.23Z"/><path class="cls-1" d="M84.68,111.89v.48a3.59,3.59,0,0,1,0-.47Z"/><path class="cls-11" d="M164.28,229.38A186.4,186.4,0,0,0,48.17,368.48l-2.2-3A116.46,116.46,0,0,1,160.62,229.31C161.84,229.31,163.06,229.33,164.28,229.38Z"/><path class="cls-1" d="M84.8,103.6l-.12,8.29v.48a3.59,3.59,0,0,1,0-.47c-.06-1-.08-2-.08-3C84.57,107.1,84.65,105.34,84.8,103.6Z"/><polygon class="cls-12" points="225.58 87.1 225.56 87.93 225.44 96.19 225.23 111.2 190.38 100.04 154.99 88.71 119.86 100.29 84.68 111.89 84.8 103.6 85.06 85.6 105.6 58.16 138.35 48.03 173.37 48.03 185.49 52.16 187.55 52.86 194.62 55.27 194.63 55.27 205.82 59.09 225.58 87.1"/><path class="cls-1" d="M84.8,103.6l-.12,8.29v.48a3.59,3.59,0,0,1,0-.47c-.06-1-.08-2-.08-3C84.57,107.1,84.65,105.34,84.8,103.6Z"/><line class="cls-1" x1="125.89" x2="123.4" y2="0.91"/></svg>