<?xml version="1.0" encoding="utf-8"?>
<!-- Generator: Adobe Illustrator 24.0.1, SVG Export Plug-In . SVG Version: 6.00 Build 0)  -->
<svg version="1.1" id="Ebene_1" xmlns="http://www.w3.org/2000/svg" xmlns:xlink="http://www.w3.org/1999/xlink" x="0px" y="0px"
	 viewBox="0 0 749 254" style="enable-background:new 0 0 749 254;" xml:space="preserve">
<style type="text/css">
	.st0{fill:#3CD5B0;}
	.st1{fill:#00FF00;}
	.st2{fill:#007F68;}
	.st3{fill:url(#SVGID_1_);}
	.st4{fill:#CCCCCC;}
	.st5{fill:#4D4D4D;}
	.st6{fill:url(#SVGID_2_);}
	.st7{fill:url(#SVGID_3_);}
	.st8{fill:none;}
</style>
<title>BannerRevitalizeLogo</title>
<g>
	<g>
		<path class="st0" d="M42.2,29.9c0,12.4-5.8,18.6-17.3,18.6C13.7,48.5,8,42.4,8,30.3V6.4h9.3v24c0,6.7,2.6,10,7.8,10
			c5.1,0,7.7-3.2,7.7-9.7V6.4h9.3V29.9z"/>
		<path class="st0" d="M78.8,47.8h-9.1V31.4c0-4.6-1.6-6.9-4.9-6.9c-1.6,0-2.9,0.6-3.9,1.8c-1,1.2-1.5,2.7-1.5,4.6v16.8h-9.1V18.3
			h9.1v4.7h0.1c2.2-3.6,5.3-5.4,9.5-5.4c6.5,0,9.8,4.1,9.8,12.2V47.8z"/>
		<path class="st0" d="M95.1,47.8H86V4.1h9.1V47.8z"/>
		<path class="st0" d="M129.3,35.6H110c0.3,4.3,3,6.4,8.1,6.4c3.2,0,6.1-0.8,8.6-2.3v6.6c-2.7,1.5-6.3,2.2-10.6,2.2
			c-4.8,0-8.5-1.3-11.1-4c-2.6-2.6-3.9-6.3-3.9-11c0-4.9,1.4-8.8,4.3-11.6c2.8-2.9,6.3-4.3,10.5-4.3c4.3,0,7.6,1.3,10,3.8
			c2.4,2.6,3.5,6,3.5,10.4V35.6z M120.8,30c0-4.2-1.7-6.3-5.1-6.3c-1.5,0-2.7,0.6-3.8,1.8c-1.1,1.2-1.7,2.7-1.9,4.5H120.8z"/>
		<path class="st0" d="M159.2,47.8h-8.6v-4.2h-0.1c-2,3.3-4.9,5-8.8,5c-2.9,0-5.1-0.8-6.8-2.4c-1.6-1.6-2.5-3.8-2.5-6.5
			c0-5.7,3.4-9,10.2-9.9l8-1.1c0-3.2-1.7-4.8-5.2-4.8c-3.5,0-6.9,1-10,3.1V20c1.3-0.7,3-1.2,5.2-1.7c2.2-0.5,4.2-0.8,6-0.8
			c8.4,0,12.6,4.2,12.6,12.6V47.8z M150.7,35.8v-2l-5.4,0.7c-3,0.4-4.4,1.7-4.4,4c0,1,0.4,1.9,1.1,2.5c0.7,0.7,1.7,1,2.9,1
			c1.7,0,3.1-0.6,4.2-1.8C150.1,39.1,150.7,37.6,150.7,35.8z"/>
		<path class="st0" d="M164.5,47v-7.4c1.5,0.9,3,1.6,4.5,2c1.5,0.4,2.9,0.7,4.2,0.7c1.6,0,2.9-0.2,3.8-0.7c0.9-0.4,1.4-1.1,1.4-2
			c0-0.6-0.2-1.1-0.6-1.4c-0.4-0.4-1-0.7-1.6-1c-0.7-0.3-1.4-0.5-2.2-0.8c-0.8-0.2-1.5-0.5-2.3-0.8c-1.2-0.4-2.2-0.9-3.1-1.4
			c-0.9-0.5-1.6-1.1-2.2-1.8c-0.6-0.7-1.1-1.4-1.4-2.3c-0.3-0.9-0.5-1.9-0.5-3.1c0-1.7,0.4-3.1,1.1-4.3c0.7-1.2,1.7-2.2,2.9-2.9
			c1.2-0.8,2.6-1.3,4.1-1.7c1.5-0.4,3.2-0.5,4.8-0.5c1.3,0,2.6,0.1,4,0.3c1.3,0.2,2.7,0.5,4,0.9v7c-1.2-0.7-2.4-1.2-3.7-1.5
			c-1.3-0.3-2.6-0.5-3.9-0.5c-0.6,0-1.2,0.1-1.7,0.2c-0.5,0.1-1,0.3-1.4,0.5c-0.4,0.2-0.7,0.5-1,0.8c-0.2,0.3-0.3,0.7-0.3,1.1
			c0,0.5,0.2,1,0.5,1.4c0.3,0.4,0.8,0.7,1.4,1c0.6,0.3,1.2,0.5,1.9,0.7c0.7,0.2,1.4,0.4,2,0.7c1.2,0.4,2.3,0.9,3.3,1.4
			c1,0.5,1.8,1.1,2.5,1.8c0.7,0.7,1.2,1.5,1.6,2.4c0.4,0.9,0.6,2,0.6,3.2c0,1.7-0.4,3.2-1.1,4.5c-0.8,1.2-1.8,2.2-3,3
			c-1.3,0.8-2.7,1.3-4.3,1.7c-1.6,0.4-3.3,0.5-5.1,0.5C170.3,48.5,167.3,48,164.5,47z"/>
		<path class="st0" d="M220.7,47.8h-9.1V31c0-4.3-1.6-6.5-4.7-6.5c-1.6,0-2.9,0.6-3.9,1.8c-1,1.2-1.5,2.7-1.5,4.6v16.8h-9.1V4.1h9.1
			v18.6h0.1c2.2-3.4,5.3-5.1,9.1-5.1c6.7,0,10,4,10,12.1V47.8z"/>
		<path class="st0" d="M272.3,18.3l-12,31.9c-2.9,7.7-7.2,11.5-13,11.5c-2.2,0-4-0.3-5.4-0.8v-7.3c1.2,0.7,2.5,1.1,3.9,1.1
			c2.3,0,4-1.1,4.9-3.3l1.6-3.7l-12-29.4h10.1l5.5,17.9c0.3,1.1,0.6,2.4,0.8,3.9h0.1c0.2-1.1,0.5-2.4,1-3.9l5.6-18H272.3z"/>
		<path class="st0" d="M289.4,48.5c-4.9,0-8.8-1.4-11.6-4.1c-2.8-2.8-4.2-6.5-4.2-11.2c0-4.9,1.5-8.7,4.4-11.5
			c2.9-2.8,6.9-4.1,11.8-4.1c4.9,0,8.7,1.4,11.5,4.1c2.8,2.8,4.2,6.4,4.2,10.9c0,4.9-1.4,8.8-4.3,11.6
			C298.3,47.1,294.4,48.5,289.4,48.5z M289.6,24.5c-2.2,0-3.8,0.7-5,2.2c-1.2,1.5-1.8,3.6-1.8,6.3c0,5.7,2.3,8.5,6.9,8.5
			c4.4,0,6.5-2.9,6.5-8.7C296.2,27.3,294,24.5,289.6,24.5z"/>
		<path class="st0" d="M339.5,47.8h-9.1v-4.5h-0.1c-2.2,3.5-5.3,5.2-9,5.2c-6.8,0-10.3-4.1-10.3-12.4V18.3h9.1v17
			c0,4.2,1.7,6.3,5,6.3c1.6,0,2.9-0.6,3.9-1.7c1-1.1,1.5-2.7,1.5-4.7V18.3h9.1V47.8z"/>
		<path class="st0" d="M366.4,26.5c-1.1-0.6-2.4-0.9-3.8-0.9c-2,0-3.5,0.7-4.6,2.2c-1.1,1.5-1.7,3.4-1.7,5.9v14.1h-9.1V18.3h9.1v5.5
			h0.1c1.4-4,4-6,7.8-6c1,0,1.7,0.1,2.2,0.3V26.5z"/>
	</g>
</g>
<g>
	<g>
		<path class="st0" d="M99.8,137.1v27.3H82V85.2h27.9c19.9,0,29.9,8.4,29.9,25.2c0,7.9-2.9,14.4-8.6,19.3
			c-5.7,4.9-13.4,7.4-22.9,7.4H99.8z M99.8,98.9v24.7h7c9.5,0,14.2-4.2,14.2-12.5c0-8.1-4.7-12.2-14.2-12.2H99.8z"/>
		<path class="st0" d="M203.4,164.3H186v-8.6h-0.3c-4.3,6.7-10.1,10-17.3,10c-13.1,0-19.6-7.9-19.6-23.8v-34.1h17.4v32.6
			c0,8,3.2,12,9.5,12c3.1,0,5.6-1.1,7.5-3.3s2.8-5.2,2.8-8.9v-32.3h17.4V164.3z"/>
		<path class="st0" d="M254.9,123.6c-2.1-1.1-4.5-1.7-7.3-1.7c-3.8,0-6.8,1.4-8.9,4.2c-2.1,2.8-3.2,6.6-3.2,11.3v27h-17.4v-56.5
			h17.4v10.5h0.2c2.8-7.7,7.7-11.5,14.9-11.5c1.8,0,3.3,0.2,4.3,0.7V123.6z"/>
		<path class="st0" d="M313.3,141h-36.9c0.6,8.2,5.8,12.3,15.5,12.3c6.2,0,11.7-1.5,16.4-4.4v12.6c-5.2,2.8-12,4.2-20.4,4.2
			c-9.1,0-16.2-2.5-21.2-7.6c-5-5.1-7.6-12.1-7.6-21.2c0-9.4,2.7-16.8,8.2-22.3c5.4-5.5,12.1-8.2,20.1-8.2c8.2,0,14.6,2.4,19.1,7.3
			c4.5,4.9,6.8,11.5,6.8,19.9V141z M297.2,130.3c0-8.1-3.3-12.1-9.8-12.1c-2.8,0-5.2,1.2-7.3,3.5c-2,2.3-3.3,5.2-3.7,8.7H297.2z"/>
		<path class="st0" d="M427.8,164.3h-18l-32.6-49.7c-1.9-2.9-3.2-5.1-4-6.6H373c0.3,2.8,0.4,7.1,0.4,12.8v43.5h-16.8V85.2h19.2
			l31.4,48.2c1.4,2.2,2.8,4.3,4,6.5h0.2c-0.3-1.8-0.4-5.5-0.4-10.9V85.2h16.8V164.3z"/>
		<path class="st0" d="M491.2,164.3h-16.5v-8.1h-0.2c-3.8,6.3-9.4,9.5-16.8,9.5c-5.5,0-9.8-1.6-12.9-4.7c-3.1-3.1-4.7-7.3-4.7-12.4
			c0-11,6.5-17.3,19.5-19l15.3-2c0-6.2-3.3-9.3-10-9.3c-6.7,0-13.1,2-19.2,6v-13.1c2.4-1.3,5.7-2.4,10-3.3c4.2-1,8-1.4,11.5-1.4
			c16.1,0,24.2,8,24.2,24.1V164.3z M474.8,141.4v-3.8l-10.3,1.3c-5.7,0.7-8.5,3.3-8.5,7.7c0,2,0.7,3.6,2.1,4.9
			c1.4,1.3,3.2,1.9,5.6,1.9c3.3,0,5.9-1.1,8-3.4C473.8,147.7,474.8,144.8,474.8,141.4z"/>
		<path class="st0" d="M539.1,163.7c-2.6,1.4-6.5,2-11.6,2c-12.3,0-18.4-6.4-18.4-19.1v-25.9h-9.2v-12.9h9.2V95.6l17.4-5v17.2h12.7
			v12.9h-12.7v22.8c0,5.9,2.3,8.8,7,8.8c1.8,0,3.7-0.5,5.7-1.6V163.7z"/>
		<path class="st0" d="M602.6,164.3h-17.4v-8.6H585c-4.3,6.7-10.1,10-17.3,10c-13.1,0-19.6-7.9-19.6-23.8v-34.1h17.4v32.6
			c0,8,3.2,12,9.5,12c3.1,0,5.6-1.1,7.5-3.3s2.8-5.2,2.8-8.9v-32.3h17.4V164.3z"/>
		<path class="st0" d="M654.2,123.6c-2.1-1.1-4.5-1.7-7.3-1.7c-3.8,0-6.8,1.4-8.9,4.2c-2.1,2.8-3.2,6.6-3.2,11.3v27h-17.4v-56.5
			h17.4v10.5h0.2c2.8-7.7,7.7-11.5,14.9-11.5c1.8,0,3.3,0.2,4.3,0.7V123.6z"/>
		<path class="st0" d="M712.6,141h-36.9c0.6,8.2,5.8,12.3,15.5,12.3c6.2,0,11.7-1.5,16.4-4.4v12.6c-5.2,2.8-12,4.2-20.4,4.2
			c-9.1,0-16.2-2.5-21.2-7.6c-5-5.1-7.6-12.1-7.6-21.2c0-9.4,2.7-16.8,8.2-22.3c5.4-5.5,12.1-8.2,20.1-8.2c8.2,0,14.6,2.4,19.1,7.3
			c4.5,4.9,6.8,11.5,6.8,19.9V141z M696.4,130.3c0-8.1-3.3-12.1-9.8-12.1c-2.8,0-5.2,1.2-7.3,3.5c-2,2.3-3.3,5.2-3.7,8.7H696.4z"/>
	</g>
</g>
<g>
	<path class="st1" d="M527.7,200.1l0,1.3l0,0.1c0,0,0,0,0-0.1c0-0.2,0-0.3,0-0.5C527.6,200.7,527.7,200.4,527.7,200.1z"/>
</g>
<g>
	<path class="st1" d="M527.7,200.1l0,1.3l0,0.1c0,0,0,0,0-0.1c0-0.2,0-0.3,0-0.5C527.6,200.7,527.7,200.4,527.7,200.1z"/>
</g>
<g>
	<polygon class="st2" points="561.1,196.6 561.1,207.8 560.6,208.4 560.6,208.4 559.3,210.2 557.7,208 558.4,207 558.3,196.1 
		552,187.3 543.1,184.2 543.5,184.2 543.9,184.2 554.5,187.6 558.2,192.7 	"/>
</g>
<g>
	<linearGradient id="SVGID_1_" gradientUnits="userSpaceOnUse" x1="537.9052" y1="210.3918" x2="537.9052" y2="184.0916">
		<stop  offset="0" style="stop-color:#76FFBB"/>
		<stop  offset="1" style="stop-color:#15C0B8;stop-opacity:0.6"/>
	</linearGradient>
	<path class="st3" d="M559.3,210.2l-0.1,0.2l-1.6-2.2l-0.2-0.3l-2.1-2.8l-1.8-2.5l-1.2-0.4l-1.4-0.5l-1.1-0.4l-0.2-0.1l0-2.3l0-1.3
		l0-0.1l-0.3-0.4l-2.8-4l-1.7-0.6l0,0l-1.1-0.4c-0.1,0-0.2-0.1-0.3-0.1l-1.9-0.6H536l-5.1,1.6l-0.1,0.1h0l-3.1,4.1l0,2.8
		c0,0.3,0,0.5,0,0.8c0,0.2,0,0.3,0,0.5l-0.8,0.3l-1.3,0.4l-1.4,0.5l-0.4,0.1l-5.4,7.4l-1.8-2.5l0-9.1v-2.1l4.2-5.7l0,0l2.4-3.3
		l1-0.3l3.5-1.1l6.1-2h0.4l0,0l6.4,0.1l2.6,0l8.9,3.1l6.3,8.8l0.1,10.9l-0.7,1L559.3,210.2z"/>
</g>
<g>
	<path class="st1" d="M527.7,200.1l0,1.3l0,0.1c0,0,0,0,0-0.1c0-0.2,0-0.3,0-0.5C527.6,200.7,527.7,200.4,527.7,200.1z"/>
</g>
<g>
	<path class="st1" d="M527.7,200.1l0,1.3l0,0.1c0,0,0,0,0-0.1c0-0.2,0-0.3,0-0.5C527.6,200.7,527.7,200.4,527.7,200.1z"/>
</g>
<g>
	<path class="st4" d="M581.8,218.4h-5.7v9.8h-3.2V204h8c2.7,0,4.8,0.6,6.3,1.9c1.5,1.2,2.2,3,2.2,5.4c0,1.5-0.4,2.8-1.2,3.9
		c-0.8,1.1-1.9,2-3.4,2.5l5.7,10.3v0.2h-3.4L581.8,218.4z M576.1,215.8h4.9c1.6,0,2.8-0.4,3.8-1.2c0.9-0.8,1.4-1.9,1.4-3.3
		c0-1.5-0.4-2.6-1.3-3.4c-0.9-0.8-2.2-1.2-3.9-1.2h-4.9V215.8z"/>
	<path class="st4" d="M599.9,228.5c-2.4,0-4.4-0.8-6-2.4c-1.5-1.6-2.3-3.7-2.3-6.4v-0.6c0-1.8,0.3-3.4,1-4.8
		c0.7-1.4,1.6-2.5,2.9-3.3c1.2-0.8,2.6-1.2,4-1.2c2.3,0,4.2,0.8,5.5,2.3c1.3,1.5,1.9,3.7,1.9,6.6v1.3h-12.2c0,1.8,0.6,3.2,1.6,4.3
		c1,1.1,2.3,1.6,3.8,1.6c1.1,0,2-0.2,2.8-0.7c0.8-0.4,1.4-1,2-1.8l1.9,1.5C605.2,227.3,602.9,228.5,599.9,228.5z M599.5,212.4
		c-1.2,0-2.3,0.5-3.1,1.4c-0.8,0.9-1.4,2.2-1.6,3.8h9v-0.2c-0.1-1.6-0.5-2.8-1.3-3.6C601.8,212.8,600.8,212.4,599.5,212.4z"/>
	<path class="st4" d="M615.3,224l4.5-13.8h3.1l-6.5,18h-2.3l-6.5-18h3.1L615.3,224z"/>
	<path class="st4" d="M624.9,205.4c0-0.5,0.2-0.9,0.5-1.3c0.3-0.3,0.8-0.5,1.4-0.5c0.6,0,1.1,0.2,1.4,0.5c0.3,0.3,0.5,0.8,0.5,1.3
		c0,0.5-0.2,0.9-0.5,1.2c-0.3,0.3-0.8,0.5-1.4,0.5c-0.6,0-1.1-0.2-1.4-0.5C625,206.3,624.9,205.9,624.9,205.4z M628.2,228.2h-3.1
		v-18h3.1V228.2z"/>
	<path class="st4" d="M636.4,205.8v4.4h3.4v2.4h-3.4v11.2c0,0.7,0.1,1.3,0.4,1.6c0.3,0.4,0.8,0.5,1.5,0.5c0.4,0,0.8-0.1,1.5-0.2v2.5
		c-0.8,0.2-1.6,0.3-2.4,0.3c-1.4,0-2.4-0.4-3.1-1.2c-0.7-0.8-1-2-1-3.5v-11.2H630v-2.4h3.3v-4.4H636.4z"/>
	<path class="st4" d="M653.5,228.2c-0.2-0.4-0.3-1-0.4-1.9c-1.4,1.5-3.1,2.2-5.1,2.2c-1.8,0-3.2-0.5-4.4-1.5c-1.1-1-1.7-2.3-1.7-3.8
		c0-1.9,0.7-3.3,2.1-4.4c1.4-1,3.4-1.6,6-1.6h3v-1.4c0-1.1-0.3-1.9-1-2.6c-0.6-0.6-1.6-1-2.8-1c-1.1,0-2,0.3-2.8,0.8
		c-0.7,0.6-1.1,1.2-1.1,2h-3.1c0-0.9,0.3-1.8,1-2.6c0.6-0.8,1.5-1.5,2.6-2c1.1-0.5,2.3-0.7,3.6-0.7c2.1,0,3.7,0.5,4.9,1.6
		c1.2,1,1.8,2.5,1.8,4.3v8.3c0,1.7,0.2,3,0.6,3.9v0.3H653.5z M648.4,225.8c1,0,1.9-0.2,2.7-0.7s1.5-1.1,1.9-1.9v-3.7h-2.4
		c-3.8,0-5.7,1.1-5.7,3.3c0,1,0.3,1.7,1,2.3C646.5,225.6,647.3,225.8,648.4,225.8z"/>
	<path class="st4" d="M663.3,228.2h-3.1v-25.5h3.1V228.2z"/>
	<path class="st4" d="M667.3,205.4c0-0.5,0.2-0.9,0.5-1.3c0.3-0.3,0.8-0.5,1.4-0.5c0.6,0,1.1,0.2,1.4,0.5c0.3,0.3,0.5,0.8,0.5,1.3
		c0,0.5-0.2,0.9-0.5,1.2c-0.3,0.3-0.8,0.5-1.4,0.5c-0.6,0-1.1-0.2-1.4-0.5C667.4,206.3,667.3,205.9,667.3,205.4z M670.6,228.2h-3.1
		v-18h3.1V228.2z"/>
	<path class="st4" d="M677.4,225.7H688v2.5h-14.3v-2.3l9.9-13.2h-9.8v-2.5h13.6v2.2L677.4,225.7z"/>
	<path class="st4" d="M697.7,228.5c-2.4,0-4.4-0.8-6-2.4c-1.5-1.6-2.3-3.7-2.3-6.4v-0.6c0-1.8,0.3-3.4,1-4.8
		c0.7-1.4,1.6-2.5,2.9-3.3c1.2-0.8,2.6-1.2,4-1.2c2.3,0,4.2,0.8,5.5,2.3c1.3,1.5,1.9,3.7,1.9,6.6v1.3h-12.2c0,1.8,0.6,3.2,1.6,4.3
		c1,1.1,2.3,1.6,3.8,1.6c1.1,0,2-0.2,2.8-0.7c0.8-0.4,1.4-1,2-1.8l1.9,1.5C702.9,227.3,700.7,228.5,697.7,228.5z M697.3,212.4
		c-1.2,0-2.3,0.5-3.1,1.4c-0.8,0.9-1.4,2.2-1.6,3.8h9v-0.2c-0.1-1.6-0.5-2.8-1.3-3.6C699.6,212.8,698.6,212.4,697.3,212.4z"/>
	<path class="st4" d="M707.4,226.6c0-0.5,0.2-1,0.5-1.3c0.3-0.4,0.8-0.5,1.4-0.5c0.6,0,1.1,0.2,1.4,0.5c0.3,0.4,0.5,0.8,0.5,1.3
		c0,0.5-0.2,0.9-0.5,1.3c-0.3,0.3-0.8,0.5-1.4,0.5c-0.6,0-1.1-0.2-1.4-0.5C707.5,227.5,707.4,227.1,707.4,226.6z"/>
</g>
<g>
	<path class="st5" d="M581.8,217.3h-5.7v9.8h-3.2v-24.2h8c2.7,0,4.8,0.6,6.3,1.9c1.5,1.2,2.2,3,2.2,5.4c0,1.5-0.4,2.8-1.2,3.9
		c-0.8,1.1-1.9,2-3.4,2.5l5.7,10.3v0.2h-3.4L581.8,217.3z M576.1,214.7h4.9c1.6,0,2.8-0.4,3.8-1.2c0.9-0.8,1.4-1.9,1.4-3.3
		c0-1.5-0.4-2.6-1.3-3.4c-0.9-0.8-2.2-1.2-3.9-1.2h-4.9V214.7z"/>
	<path class="st5" d="M599.9,227.4c-2.4,0-4.4-0.8-6-2.4c-1.5-1.6-2.3-3.7-2.3-6.4V218c0-1.8,0.3-3.4,1-4.8c0.7-1.4,1.6-2.5,2.9-3.3
		c1.2-0.8,2.6-1.2,4-1.2c2.3,0,4.2,0.8,5.5,2.3c1.3,1.5,1.9,3.7,1.9,6.6v1.3h-12.2c0,1.8,0.6,3.2,1.6,4.3c1,1.1,2.3,1.6,3.8,1.6
		c1.1,0,2-0.2,2.8-0.7c0.8-0.4,1.4-1,2-1.8l1.9,1.5C605.2,226.3,602.9,227.4,599.9,227.4z M599.5,211.3c-1.2,0-2.3,0.5-3.1,1.4
		c-0.8,0.9-1.4,2.2-1.6,3.8h9v-0.2c-0.1-1.6-0.5-2.8-1.3-3.6C601.8,211.7,600.8,211.3,599.5,211.3z"/>
	<path class="st5" d="M615.3,222.9l4.5-13.8h3.1l-6.5,18h-2.3l-6.5-18h3.1L615.3,222.9z"/>
	<path class="st5" d="M624.9,204.3c0-0.5,0.2-0.9,0.5-1.3c0.3-0.3,0.8-0.5,1.4-0.5c0.6,0,1.1,0.2,1.4,0.5c0.3,0.3,0.5,0.8,0.5,1.3
		s-0.2,0.9-0.5,1.2c-0.3,0.3-0.8,0.5-1.4,0.5c-0.6,0-1.1-0.2-1.4-0.5C625,205.3,624.9,204.8,624.9,204.3z M628.2,227.1h-3.1v-18h3.1
		V227.1z"/>
	<path class="st5" d="M636.4,204.8v4.4h3.4v2.4h-3.4v11.2c0,0.7,0.1,1.3,0.4,1.6c0.3,0.4,0.8,0.5,1.5,0.5c0.4,0,0.8-0.1,1.5-0.2v2.5
		c-0.8,0.2-1.6,0.3-2.4,0.3c-1.4,0-2.4-0.4-3.1-1.2c-0.7-0.8-1-2-1-3.5v-11.2H630v-2.4h3.3v-4.4H636.4z"/>
	<path class="st5" d="M653.5,227.1c-0.2-0.4-0.3-1-0.4-1.9c-1.4,1.5-3.1,2.2-5.1,2.2c-1.8,0-3.2-0.5-4.4-1.5c-1.1-1-1.7-2.3-1.7-3.8
		c0-1.9,0.7-3.3,2.1-4.4c1.4-1,3.4-1.6,6-1.6h3v-1.4c0-1.1-0.3-1.9-1-2.6c-0.6-0.6-1.6-1-2.8-1c-1.1,0-2,0.3-2.8,0.8
		c-0.7,0.6-1.1,1.2-1.1,2h-3.1c0-0.9,0.3-1.8,1-2.6c0.6-0.8,1.5-1.5,2.6-2c1.1-0.5,2.3-0.7,3.6-0.7c2.1,0,3.7,0.5,4.9,1.6
		c1.2,1,1.8,2.5,1.8,4.3v8.3c0,1.7,0.2,3,0.6,3.9v0.3H653.5z M648.4,224.8c1,0,1.9-0.2,2.7-0.7c0.9-0.5,1.5-1.1,1.9-1.9v-3.7h-2.4
		c-3.8,0-5.7,1.1-5.7,3.3c0,1,0.3,1.7,1,2.3C646.5,224.5,647.3,224.8,648.4,224.8z"/>
	<path class="st5" d="M663.3,227.1h-3.1v-25.5h3.1V227.1z"/>
	<path class="st5" d="M667.3,204.3c0-0.5,0.2-0.9,0.5-1.3c0.3-0.3,0.8-0.5,1.4-0.5c0.6,0,1.1,0.2,1.4,0.5c0.3,0.3,0.5,0.8,0.5,1.3
		s-0.2,0.9-0.5,1.2c-0.3,0.3-0.8,0.5-1.4,0.5c-0.6,0-1.1-0.2-1.4-0.5C667.4,205.3,667.3,204.8,667.3,204.3z M670.6,227.1h-3.1v-18
		h3.1V227.1z"/>
	<path class="st5" d="M677.4,224.6H688v2.5h-14.3v-2.3l9.9-13.2h-9.8v-2.5h13.6v2.2L677.4,224.6z"/>
	<path class="st5" d="M697.7,227.4c-2.4,0-4.4-0.8-6-2.4c-1.5-1.6-2.3-3.7-2.3-6.4V218c0-1.8,0.3-3.4,1-4.8c0.7-1.4,1.6-2.5,2.9-3.3
		c1.2-0.8,2.6-1.2,4-1.2c2.3,0,4.2,0.8,5.5,2.3c1.3,1.5,1.9,3.7,1.9,6.6v1.3h-12.2c0,1.8,0.6,3.2,1.6,4.3c1,1.1,2.3,1.6,3.8,1.6
		c1.1,0,2-0.2,2.8-0.7c0.8-0.4,1.4-1,2-1.8l1.9,1.5C702.9,226.3,700.7,227.4,697.7,227.4z M697.3,211.3c-1.2,0-2.3,0.5-3.1,1.4
		c-0.8,0.9-1.4,2.2-1.6,3.8h9v-0.2c-0.1-1.6-0.5-2.8-1.3-3.6C699.6,211.7,698.6,211.3,697.3,211.3z"/>
	<path class="st5" d="M707.4,225.5c0-0.5,0.2-1,0.5-1.3c0.3-0.4,0.8-0.5,1.4-0.5c0.6,0,1.1,0.2,1.4,0.5c0.3,0.4,0.5,0.8,0.5,1.3
		c0,0.5-0.2,0.9-0.5,1.3c-0.3,0.3-0.8,0.5-1.4,0.5c-0.6,0-1.1-0.2-1.4-0.5C707.5,226.4,707.4,226,707.4,225.5z"/>
</g>
<g>
	<path class="st1" d="M527.7,200.1l0,1.3l0,0.1c0,0,0,0,0-0.1c0-0.2,0-0.3,0-0.5C527.6,200.7,527.7,200.4,527.7,200.1z"/>
</g>
<g>
	<polygon class="st2" points="562.7,230.8 557.4,238.3 553.6,243.5 538.8,248.4 533.6,246.8 549.7,241.5 559.8,227.7 559.8,211.3 
		560.1,211.7 561.7,213.9 561.7,213.9 562.7,215.2 562.7,220.5 	"/>
</g>
<g>
	<linearGradient id="SVGID_2_" gradientUnits="userSpaceOnUse" x1="537.1743" y1="197.8231" x2="537.1743" y2="246.7846">
		<stop  offset="0" style="stop-color:#76FFBB"/>
		<stop  offset="1" style="stop-color:#15C0B8;stop-opacity:0.6"/>
	</linearGradient>
	<path class="st6" d="M559.8,211.3l0,16.5l-10.1,13.7l-16.1,5.3l-4.2-1.4l-0.2-0.1l-5.3-1.7l-0.1-0.1c0,0,0,0,0,0
		c0.8,0.1,1.7,0.1,2.5,0.1c12.1,0,22.4-7.4,26.7-17.9c1-2.4,1.7-5,2-7.7c0.1-0.7,0.1-1.4,0.2-2.1v0c0-0.4,0-0.8,0-1.1
		c0-1-0.1-2-0.2-3c-0.1-0.9-0.2-1.8-0.4-2.7c-0.7-0.3-1.5-0.5-2.2-0.7c-0.6-0.2-1.2-0.3-1.8-0.4c-1.8-0.3-3.6-0.5-5.4-0.5h0
		c-2,0-3.9,0.2-5.8,0.6c-2.7,0.5-5.2,1.5-7.6,2.7c-0.7,0.3-1.3,0.7-1.9,1.1c-0.1,0.1-0.3,0.2-0.4,0.3c-2.1,1.3-3.9,2.9-5.6,4.8
		c-4.1,4.5-6.8,10.2-7.4,16.6l-1.8-2.4l-0.1-15.6l3.8-5.3l5.4-7.4l0.4-0.1l1.4-0.5l1.3-0.4l0.8-0.3c0,0,0,0,0,0.1l0-0.1l5.4-1.8
		l5.4-1.8l5.5,1.8l5.4,1.7l0.2,0.1l1.1,0.4l1.4,0.5l1.2,0.4l1.8,2.5l2.1,2.8l0.2,0.3l1.6,2.2L559.8,211.3z"/>
</g>
<g>
	<path class="st1" d="M527.7,201.4L527.7,201.4C527.7,201.5,527.7,201.4,527.7,201.4L527.7,201.4z"/>
</g>
<g>
	<linearGradient id="SVGID_3_" gradientUnits="userSpaceOnUse" x1="526.0844" y1="225.4561" x2="531.8815" y2="231.2532">
		<stop  offset="0" style="stop-color:#76FFBB"/>
		<stop  offset="1" style="stop-color:#15C0B8;stop-opacity:0.6"/>
	</linearGradient>
	<path class="st7" d="M540,219.6c-9.2,3.5-16.1,11.6-18,21.5l-0.3-0.5c-0.2-1-0.3-2-0.3-3.1c0-9.9,8.1-18,18-18
		C539.6,219.6,539.8,219.6,540,219.6z"/>
</g>
<g>
	<path class="st1" d="M527.7,200.1l0,1.3l0,0.1c0,0,0,0,0-0.1c0-0.2,0-0.3,0-0.5C527.6,200.7,527.7,200.4,527.7,200.1z"/>
</g>
<g>
	<polygon class="st8" points="549.5,197.6 549.5,197.7 549.4,199 549.4,201.3 544,199.6 538.5,197.8 533.1,199.6 527.7,201.4 
		527.7,200.1 527.7,197.3 530.9,193.1 536,191.5 541.4,191.5 543.3,192.2 543.6,192.3 544.7,192.6 544.7,192.6 546.4,193.2 	"/>
</g>
<g>
	<path class="st1" d="M527.7,200.1l0,1.3l0,0.1c0,0,0,0,0-0.1c0-0.2,0-0.3,0-0.5C527.6,200.7,527.7,200.4,527.7,200.1z"/>
</g>
<line class="st1" x1="527.2" y1="179.6" x2="526.8" y2="179.7"/>
<path class="st1" d="M537.1,179.8"/>
</svg>
