<svg id="Ebene_1" data-name="Ebene 1" xmlns="http://www.w3.org/2000/svg" xmlns:xlink="http://www.w3.org/1999/xlink" viewBox="0 0 1920 423"><defs><style>.cls-1{opacity:0.5;fill:url(#Unbenannter_Verlauf_9);}.cls-2{opacity:0.25;fill:url(#Unbenannter_Verlauf_9-2);}.cls-3{fill:url(#Unbenannter_Verlauf_9-3);}</style><linearGradient id="Unbenannter_Verlauf_9" x1="427.37" y1="720.55" x2="2168.71" y2="-390.14" gradientUnits="userSpaceOnUse"><stop offset="0" stop-color="#239b67"/><stop offset="0.39" stop-color="#45c38e"/><stop offset="0.79" stop-color="#63e7b1"/><stop offset="1" stop-color="#6ef5be"/></linearGradient><linearGradient id="Unbenannter_Verlauf_9-2" x1="-50.63" y1="720.55" x2="1690.71" y2="-390.14" xlink:href="#Unbenannter_Verlauf_9"/><linearGradient id="Unbenannter_Verlauf_9-3" x1="157.37" y1="720.55" x2="1898.71" y2="-390.14" xlink:href="#Unbenannter_Verlauf_9"/></defs><title>Welle</title><path class="cls-1" d="M157,58C426.4-9.33,638.76-6.59,782,8c210.19,21.4,289.66,41.78,503,47,230.9,5.64,242.52-53,533-55,178.37-1.22,255.44,49,400,71,191.27,29.07,281.46,46.2,296,81,47.9,114.61-341.26,286-723,270-215-9-262-30.37-966-108-230.74-25.45-633,84.09-688-51C108.11,192.08,131.37,114.24,157,58Z"/><path class="cls-2" d="M-321,58C-51.6-9.33,160.76-6.59,304,8,514.19,29.4,593.66,49.78,807,55c230.9,5.64,242.52-53,533-55,178.37-1.22,255.44,49,400,71,191.27,29.07,281.46,46.2,296,81,47.9,114.61-341.26,286-723,270-215-9-262-30.37-966-108-230.74-25.45-633,84.09-688-51C-369.89,192.08-346.63,114.24-321,58Z"/><path class="cls-3" d="M-113,58C156.4-9.33,368.76-6.59,512,8c210.19,21.4,289.66,41.78,503,47,230.9,5.64,242.52-53,533-55,178.37-1.22,255.44,49,400,71,191.27,29.07,281.46,46.2,296,81,47.9,114.61-341.26,286-723,270-215-9-262-30.37-966-108-230.74-25.45-633,84.09-688-51C-161.89,192.08-138.63,114.24-113,58Z"/></svg>