<svg id="Ebene_1" data-name="Ebene 1" xmlns="http://www.w3.org/2000/svg" xmlns:xlink="http://www.w3.org/1999/xlink" viewBox="0 0 829.28 987.83"><defs><style>.cls-1{fill:#60c5aa;}.cls-2{fill:#e8f1ef;}.cls-3{fill:#e3eeeb;}.cls-4{fill:#98decb;}.cls-5{fill:#b6dad0;}.cls-6{fill:#acd9cd;}.cls-7{fill:#7cd8c0;}.cls-8{fill:#6cd2b7;}.cls-9{fill:#c9e1da;}.cls-10{fill:#beddd4;}.cls-11{fill:#c0ddd6;}.cls-12{fill:#eaf2ef;}.cls-13{fill:#d9e9e5;}.cls-14{fill:#c9e1db;}.cls-15{fill:#d2e5e0;}.cls-16{fill:#d8e8e4;}.cls-17{fill:#cee3dd;}.cls-18{fill:#a9d9cc;}.cls-19{fill:#9fdaca;}.cls-20{fill:#78d4bc;}.cls-21{fill:#d6e7e3;}.cls-22{fill:#ddebe7;}.cls-23{fill:#e2edea;}.cls-24{fill:#e0ece9;}.cls-25{fill:#fff;}.cls-26{fill:url(#Unbenannter_Verlauf_2);}.cls-27{fill:lime;}.cls-28{fill:#007f68;}.cls-29{fill:url(#Unbenannter_Verlauf_3);}.cls-30{fill:url(#Unbenannter_Verlauf_3-2);}.cls-31{fill:url(#Unbenannter_Verlauf_4);}.cls-32{fill:none;}</style><linearGradient id="Unbenannter_Verlauf_2" x1="336.09" y1="716.71" x2="487.45" y2="716.71" gradientTransform="matrix(1, 0, 0, -1, 0, 1002.04)" gradientUnits="userSpaceOnUse"><stop offset="0" stop-color="#fff"/><stop offset="1" stop-color="#fff"/></linearGradient><linearGradient id="Unbenannter_Verlauf_3" x1="408.77" y1="635.67" x2="408.77" y2="792.04" gradientTransform="matrix(1, 0, 0, -1, 0, 1002.04)" gradientUnits="userSpaceOnUse"><stop offset="0" stop-color="#76ffbb"/><stop offset="1" stop-color="#15c0b8"/></linearGradient><linearGradient id="Unbenannter_Verlauf_3-2" x1="404.43" y1="710.4" x2="404.43" y2="419.32" xlink:href="#Unbenannter_Verlauf_3"/><linearGradient id="Unbenannter_Verlauf_4" x1="338.52" y1="546.09" x2="372.96" y2="511.65" gradientTransform="matrix(1, 0, 0, -1, 0, 1002.04)" gradientUnits="userSpaceOnUse"><stop offset="0" stop-color="#76ffbb"/><stop offset="1" stop-color="#15c0b8" stop-opacity="0.6"/></linearGradient></defs><title>Vitamin-Dose</title><path class="cls-1" d="M691.77,142.25a13.4,13.4,0,0,0-.73,3.6c.39,4.84,1.62,9.71,1.32,14.49s-5.2,6-8.89,6.71c-5.32,1.07-6.3,3.83-6,8.66.19,3.37,1.18,5.14,4.38,6.1,8,2.41,11.67,7.39,11.67,15.75q0,81.65,0,163.28V872.65c0,2.16-.09,4.32-.14,6.48v8c-.11.1-.31.22-.29.3a4,4,0,0,0,.26.73l-1.05,11.94c-.54,1.34-1.09,2.68-1.64,4-.07.6-.13,1.19-.2,1.79l-1.67,4.2-1.32,3q-3,4.44-6.08,8.89l-9.79,9-3,2-11.95,8-2-.05-2.08,1-3.85.22-1,.94-1.93.09-2.16,1.78L635.66,947l-2.07.93-5.94,1-4,1-2,.07-2,.92-2,0-2,1-3,0-11,2-3,.05-2,.94-4,.05c-5-1.48-9.69-1.12-14,2l-5,0-2,.94-6,0c-6.14.2-12.28.39-18.41.67-.22,0-.4.85-.6,1.3l-7,0-5,.94-7,.06c-.57-.31-1.15-.9-1.7-.88-9.9.36-19.81.7-29.71,1.27A87.9,87.9,0,0,0,486.8,963h-5c-2.85-1.12-5.73-2.57-8,.94h-9.92c-1.32-.63-2.66-1.83-4-1.81-5.28.1-10.56.82-15.84.85q-29.93.18-59.87,0c-3.62,0-7.27-1-10.84-.75-4.16.32-8.81-2.34-12.45,1.7l-8,0c-2.26-3.62-5.16-2.06-8-1h-8a8,8,0,0,0-2.19-.93c-8-.72-16.07-1.57-24.13-2-3.86-.18-7.76.56-11.65.88L291,961l-4-.93-4,0c-7.49-2.6-15.1-3.77-23-2l-5,0-3-.94-5,0c-4.32-3.11-9-3.47-14-2l-4,0-2-.94-16.92-2-2.07-1-8.91-1.07-2.07-1-4.93-1L190.1,947l-7.91-2.09c-.73-.58-1.45-1.17-2.17-1.76l-6.82-1.25L171,940.15l-10.92-5.06L152.23,930l-8.94-8.92-6.92-10.84c-.66-1.72-1.31-3.45-2-5.17l-1.34-3c-.27-1-.55-2-.83-3.05l-.22-2a1.48,1.48,0,0,0,0-.93l0-5q0-197.22,0-394.44,0-149.55-.07-299.08c0-7.23,2.85-12.6,9.28-15,5.37-2,6.6-5.15,5.86-10.11a18.38,18.38,0,0,1,0-2.87c-19-5.92-17.07-14.24-12.71-23.45-.54-3.34-1.25-5.69-1.26-8-.08-24.64.06-49.27-.14-73.91,0-5.16,1.72-9.17,6.26-10.83,10.46-3.81,21-7.9,31.82-10.13,14.48-3,29.27-4.66,44-6.2,19.68-2,39.41-3.77,59.16-5,23-1.4,46-2.07,68.94-3.1,11.42-.51,22.83-1.2,34.25-1.64,3.11-.11,6.26.67,9.38.6,7.77-.17,15.54-.87,23.31-.85,9.77,0,19.53.74,29.3.86,10.11.12,20.23-.29,30.33-.13,14.26.24,28.53.62,42.77,1.28,17.16.79,34.33,1.56,51.43,3,17.52,1.5,35,3.75,52.45,5.85,12.72,1.53,25.58,2.58,38.08,5.26,10.82,2.32,21.29,6.41,31.75,10.2,2.16.78,3.56,3.65,5.32,5.56l.81,1.93v80Z"/><path class="cls-2" d="M693.61,898.11c8.44-.34,16.89-1,25.34-.94,15.11.09,30.27-.07,45.3,1.17a137.19,137.19,0,0,1,29.5,6.17c11.08,3.49,16.14,12.57,17.7,23.7,2,14.08-7.77,27.19-22.12,29.81-8,1.45-15.89,3-23.89,4.12a131.39,131.39,0,0,1-13.62.87q-14.16.59-28.33,1c-13.28.39-26.55.66-39.83,1-10.11.29-20.22.7-30.33.93a21.09,21.09,0,0,1-4.69-.94l3-1h3l4-1h36l18-1h5c4.41,0,8.82.15,13.21-.08,1.29-.07,2.52-1.24,3.78-1.91h2c1.55.33,3.14,1.05,4.67.93,7.07-.52,14.12-1.35,21.19-1.91,11-.87,21.49-3.54,31-9.36,8.38-5.15,10.94-12.22,8-21.4-1-3.32-1.94-6.68-3-10-.41-1.23-.91-2.88-1.87-3.41-6.9-3.75-13.58-8.57-21-10.58-17.61-4.78-35.94-3.57-54-4.17-9.3-.32-18.62-.06-27.93-.06Z"/><path class="cls-3" d="M693.61,900.1c9.31,0,18.63-.26,27.93.06,18.06.6,36.39-.61,54,4.17,7.41,2,14.09,6.83,21,10.58,1,.53,1.46,2.18,1.87,3.41,1.09,3.3,2,6.66,3,10,2.91,9.18.35,16.25-8,21.4-9.49,5.82-20,8.49-31,9.36-7.07.56-14.12,1.39-21.19,1.91-1.53.12-3.12-.6-4.67-.93l19-2,3-1h2l4-1h2c7.6-2.64,15.37-4.89,22.76-8,5.22-2.24,9.11-10.78,7.72-14.82-1.51-4.37-2.51-9-4.79-13-2.07-3.57-5-7.94-8.51-9.11-9.45-3.14-19.41-4.76-29.17-7h-3l-4-1-18,1h-5c-1-.67-1.89-1.89-2.85-1.91q-13.14-.23-26.29,0c-.95,0-1.88,1.25-2.83,1.92l-2,0c.55-1.34,1.1-2.68,1.64-4Z"/><path class="cls-4" d="M473.73,968.79l-8.84.05c-1.34-.6-2.69-1.73-4-1.73q-48-.15-95.95,0c-1.35,0-2.7,1.12-4.05,1.72l-7,.26-.94-1c0-.73,0-1.46-.05-2.19l0-1.89,8,0H473.79l8-.94h5l5.13,2.88c-4.88.05-9.77-.08-14.63.28C476.05,966.26,474.92,967.88,473.73,968.79Z"/><path class="cls-5" d="M360.86,968.83c1.35-.6,2.7-1.72,4.05-1.72q48-.15,95.95,0c1.34,0,2.69,1.13,4,1.73l-18,1.18c-8.09,0-16.17.06-24.26,0-19.54-.22-39.08-.51-58.62-.77Z"/><path class="cls-4" d="M337,963h8l3,2.86,0,2.17-8.92.26-10-.39c-.31-.66-.63-1.32-.94-2Z"/><path class="cls-6" d="M347.93,968.05l0-2.17h4.94c0,.73,0,1.46.05,2.19Z"/><path class="cls-7" d="M693.36,883.11v0Z"/><path class="cls-8" d="M692.39,60.92,691.58,59Z"/><path class="cls-8" d="M691.77,142.25l.62-1.37Z"/><path class="cls-7" d="M693.33,888.13a4,4,0,0,1-.26-.73c0-.08.18-.2.29-.3Z"/><path class="cls-9" d="M136.37,910.22l6.92,10.84c-7.17.76-14.42,1-21.47,2.38-14.41,2.75-28.68,6.16-41.6,13.61-3.76,2.16-4.13,3.86-.18,5.73a53.21,53.21,0,0,0,14.38,4.39c16.44,2.53,32.92,4.84,49.44,6.8,14.08,1.67,28.23,2.68,42.33,4.19,1.07.12,2,1.86,2.93,2.85l-1,0-5-1h-11l-4-1h-5l-5-1h-2c-5.56-.67-11.12-1.49-16.7-2-16.45-1.42-33-2.24-49.35-4.22a126.66,126.66,0,0,1-27.33-6.36c-8.11-2.9-10.18-8.27-4.32-14.26a143.79,143.79,0,0,0,11.71-12.76c3.28-4.28,7.75-5.87,12.46-6.26,15.81-1.31,31.65-2.18,47.5-3.06C132.17,909,134.28,909.85,136.37,910.22Z"/><path class="cls-10" d="M189.12,961c-1-1-1.86-2.72-2.93-2.84-14.1-1.51-28.25-2.52-42.33-4.19-16.52-2-33-4.27-49.44-6.8A53.21,53.21,0,0,1,80,942.78c-4-1.87-3.58-3.57.18-5.73,12.92-7.45,27.19-10.86,41.6-13.61,7.05-1.35,14.3-1.62,21.47-2.38l8.94,8.92c-.94.66-1.85,1.35-2.82,2-4.19,2.65-4.64,6.26-1,9.78a16.34,16.34,0,0,0,4.43,3.13c15.33,7.16,31.82,9.8,48.35,12.16,10.28,1.46,20.6,2.69,30.9,4,0,.35,0,.69,0,1l-10,.92-4-1-8-1-5,0c-4.33.41-8.93-2.73-13,1h-1.93l-1-1Z"/><path class="cls-11" d="M671.58,931l9.79-9c8.17,1,16.32,2.22,24.51,3a96.1,96.1,0,0,1,35.61,10.63c2,1,3.3,3.36,4.93,5.09-2,1.44-3.92,3.82-6.13,4.19-13.95,2.28-28,4-42,6.18-3.63.55-7.13,1.93-10.7,2.92h-1c-1.59-.32-3.24-1.08-4.77-.9q-23.93,2.82-47.83,6c-.85.11-1.57,1.24-2.36,1.89h-3c-3.47-1-7-2.79-10,1h-4l-4-2c3.84-.68,7.68-1.33,11.51-2q18.48-3.35,36.95-6.71c9.64-1.76,17.56-7.1,25.53-12.33,3-2,2.36-4.07-.52-5C680.08,932.63,675.78,932,671.58,931Z"/><path class="cls-12" d="M181.12,965a19.77,19.77,0,0,1-4.19,1c-12.14.08-24.28.17-36.42,0-14.59-.2-29.2-.29-43.77-1.07-12.61-.68-25.19-2-37.73-3.51-8.76-1-17.51-2.35-26.14-4.15-7.79-1.63-13.61-6.79-18.52-12.78-3.64-4.44-4.69-9.85-4-15.5.5-4.09.85-8.29,2.12-12.17a17.23,17.23,0,0,1,5-7.67c8.66-7.16,19-10.91,30-11.91,12.84-1.16,25.75-1.63,38.65-2.08,8.72-.3,17.46-.18,26.18,0,6.28.12,12.56.62,18.83,1l.87.95c.07.67.15,1.33.22,2l-.11.09a11.26,11.26,0,0,0-3.3-1c-22.87.61-45.76.92-68.6,2.14C48.94,900.91,37.92,904,28.67,911a17.36,17.36,0,0,0-5.17,7.49c-1.31,3.51-1.3,7.49-2.37,11.11C19.26,936,22.2,941.09,26,945c7.42,7.49,17.17,11.55,27.45,12.9,15,2,30.22,3.26,45.38,4.07,15.9.85,31.85.74,47.78,1.13,10.44.26,20.87.63,31.31,1A13.16,13.16,0,0,1,181.12,965Z"/><path class="cls-13" d="M133.07,902.09c.45,1,.89,2,1.34,3-9.27.35-18.54,1.09-27.79,1a180.84,180.84,0,0,0-43.31,4.25c-4,.91-8.65,2.56-11,5.48-3.65,4.53-5.72,10.39-8.2,15.8-1.83,4-1.37,8,2.11,10.86a33.3,33.3,0,0,0,9.11,5.71c17.39,6.52,35.83,7.25,54,8.83,14.15,1.23,28.4,1.44,42.6,2.16a7.06,7.06,0,0,1,2.18,1c-.73.32-1.47,1-2.19.93-11.43-.29-22.87-.68-34.3-1-2.42-.07-4.85.12-7.25-.08-10.69-.89-21.37-2-32.06-2.8-12.79-1-25.2-3.21-36.8-9-5.89-3-11.22-11-9.77-15.89a113.57,113.57,0,0,1,5.18-15A13.75,13.75,0,0,1,42.82,911c14.76-7.34,31-7.59,46.93-8.67,14.07-1,28.27-.2,42.41-.2C132.46,902.11,132.77,902.1,133.07,902.09Z"/><path class="cls-14" d="M687.6,954c3.57-1,7.07-2.37,10.7-2.92,14-2.15,28-3.9,42-6.18,2.21-.37,4.09-2.75,6.13-4.19-1.63-1.73-2.94-4-4.93-5.09A96.1,96.1,0,0,0,705.88,925c-8.19-.81-16.34-2-24.51-3q3-4.46,6.08-8.89c4.45.32,8.89.86,13.34.93,8.43.14,16.84-.51,24.84,3.43,4.36,2.15,9.33,3,13.9,4.8,8.29,3.21,17.07,5.65,22.46,13.7,2.54,3.8,2.21,5.64-1.91,7.82-10.38,5.5-21.93,5.6-33.14,7.31-1.85.29-3.58,1.28-5.37,1.94h-3l-4,1h-3c-3.78-1-7.64-2.8-11,1h-6Z"/><path class="cls-15" d="M154.14,960.05a7.06,7.06,0,0,0-2.18-1c-14.2-.72-28.45-.93-42.6-2.16-18.21-1.58-36.65-2.31-54-8.83a33.3,33.3,0,0,1-9.11-5.71c-3.48-2.87-3.94-6.88-2.11-10.86,2.48-5.41,4.55-11.27,8.2-15.8,2.36-2.92,7.06-4.57,11-5.48A180.84,180.84,0,0,1,106.62,906c9.25.14,18.52-.6,27.79-1,.65,1.72,1.3,3.45,2,5.17-2.09-.37-4.2-1.18-6.26-1.06-15.85.88-31.69,1.75-47.5,3.06-4.71.39-9.18,2-12.46,6.26a143.79,143.79,0,0,1-11.71,12.76c-5.86,6-3.79,11.36,4.32,14.26a126.66,126.66,0,0,0,27.33,6.36c16.38,2,32.9,2.8,49.35,4.22,5.58.48,11.14,1.3,16.7,2v2Z"/><path class="cls-16" d="M724.57,904.1h5c1.13.66,2.19,1.77,3.38,1.92,10.78,1.44,21.62,2.44,32.36,4.11,8.38,1.3,15.56,4.6,17.88,14.06.58,2.36,2.08,4.52,3.28,6.7,2.89,5.29,2.6,9.16-1.87,13.27-2.25,2.07-5.05,4.14-7.93,4.83-11,2.66-22.24,4.74-33.37,7.07-4.58,1-9.15,2-13.73,3h-12l-5,1h-6l-5-2a8,8,0,0,1,2.18-.95c16.41-1.72,32.86-3,49.2-5.22,6.79-.91,13.49-3.24,19.93-5.7,4.09-1.56,8.43-5.77,6.8-9.76-2.8-6.87-7.29-13.28-12.06-19.08-5-6.07-13.2-6.24-20.16-7-17.25-1.77-34.63-2.24-52-3.32a30.57,30.57,0,0,1-5.08-1.17c.07-.6.13-1.19.2-1.79l2,0a24.64,24.64,0,0,0,4.64.94q11.35.15,22.7,0A24.42,24.42,0,0,0,724.57,904.1Z"/><path class="cls-15" d="M690.44,905.88a30.57,30.57,0,0,0,5.08,1.17c17.33,1.08,34.71,1.55,52,3.32,7,.72,15.16.89,20.16,7,4.77,5.8,9.26,12.21,12.06,19.08,1.63,4-2.71,8.2-6.8,9.76-6.44,2.46-13.14,4.79-19.93,5.7-16.34,2.19-32.79,3.5-49.2,5.22a8,8,0,0,0-2.18.95h-8l-17,1h-8v-1c1.39-.33,2.75-.76,4.16-1,4.6-.71,9.22-1.35,13.83-2h14l11-1h3l4-1h3c14.56-.72,29-2.35,43-6.79,8.08-2.56,10.16-9.13,3.68-15.91-3-3.1-6.77-5.46-9.51-8.73-5.49-6.56-13-8.78-20.76-9.35-16.36-1.2-32.78-1.51-49.18-2.18Z"/><path class="cls-17" d="M688.77,910.08c16.4.67,32.82,1,49.18,2.18,7.74.57,15.27,2.79,20.76,9.35,2.74,3.27,6.54,5.63,9.51,8.73,6.48,6.78,4.4,13.35-3.68,15.91-14,4.44-28.41,6.07-43,6.79,1.79-.66,3.52-1.65,5.37-1.94,11.21-1.71,22.76-1.81,33.14-7.31,4.12-2.18,4.45-4,1.91-7.82-5.39-8.05-14.17-10.49-22.46-13.7-4.57-1.77-9.54-2.65-13.9-4.8-8-3.94-16.41-3.29-24.84-3.43-4.45-.07-8.89-.61-13.34-.93Z"/><path class="cls-6" d="M232.07,961.05c-10.3-1.34-20.62-2.57-30.9-4-16.53-2.36-33-5-48.35-12.16a16.34,16.34,0,0,1-4.43-3.13c-3.62-3.52-3.17-7.13,1-9.78,1-.62,1.88-1.31,2.82-2l7.89,5.11c-.72,5,2.33,7.74,6.3,9.58,12.9,6,26.66,8.68,40.67,10.37,6.37.69,12.74,1.41,19.11,2,20.11,2,40.23,3.93,60.33,6.07,1.26.13,2.35,1.81,3.52,2.77l-7.07.16-5.94-.93-6.08-1-11,.12-3.91-.09-9-.14-5,0-5-1-2-2Z"/><path class="cls-4" d="M290.05,965.91c-1.17-.95-2.26-2.63-3.52-2.76-20.1-2.14-40.22-4.06-60.33-6.07-6.37-.63-12.74-1.35-19.11-2-.61-.65-1.12-1.71-1.84-1.88-7.64-1.79-15.42-3.07-22.92-5.28-3.66-1.08-6.82-3.83-10.21-5.82l1.08-.13,6.82,1.25,2.17,1.76L190.1,947l2.07.92,4.93,1,2.07,1,8.91,1.07,2.07,1,16.92,2,2,.94,4,0,14,2,5,0,3,.94,5,0c4.66.68,9.3,1.53,14,2a86.94,86.94,0,0,0,9,0l4,0,4,.93L299,961a6.68,6.68,0,0,0,2.16,1q9.92.62,19.83,1c2,.09,4.19-.2,4.13,2.84L322,967l-9.07,0c-2.32-.09-4.65-3.38-7,0H292Z"/><path class="cls-5" d="M671.58,931c4.2,1,8.5,1.62,12.57,3,2.88.95,3.5,3.06.52,5-8,5.23-15.89,10.57-25.53,12.33q-18.46,3.38-36.95,6.71c-3.83.69-7.67,1.34-11.51,2h-2l-5,0c.62-.64,1.16-1.73,1.87-1.86,10.37-1.78,20.91-2.79,31.09-5.29a206,206,0,0,0,29.8-10c5.35-2.23,5.32-4.93,2.12-9.92Z"/><path class="cls-4" d="M527.77,961l7-.06,5-.94,7,0,19-2,6,0,2-.94,5,0,14-2,4-.05,2-.94,3-.05,11-2,3,0,2-1,2,0,2-.92,2-.06,4-1,5.94-1,2.07-.93,7.92-2.08,2.15-1.78,1.93-.09,1-.94,3.85-.22,2.08-1,2,.05c-1.72,1.55-3.21,4-5.19,4.51-15.46,3.75-31,7.07-46.54,10.64-3.12.72-6.13,1.93-9.2,2.92h-2l-14,1-5,1c-2.59-1.19-5.36-2.93-6,1.93l-4,0c-1.92-.61-3.8-1.55-5.76-1.74-1.74-.17-3.55.6-5.35.75-8.55.69-17.09,1.52-25.66,1.88-4.36.18-8.76-.54-13.14-.85,1.84-.33,3.68-.71,5.52-1C522.79,961.66,525.28,961.35,527.77,961Z"/><path class="cls-18" d="M595.68,959c3.07-1,6.08-2.2,9.2-2.92,15.51-3.57,31.08-6.89,46.54-10.64,2-.48,3.47-3,5.19-4.51l11.95-8c3.2,5,3.23,7.69-2.12,9.92a206,206,0,0,1-29.8,10c-10.18,2.5-20.72,3.51-31.09,5.29-.71.13-1.25,1.22-1.87,1.86h-3Z"/><path class="cls-8" d="M463.87,964h-103c3.64-4.05,8.29-1.39,12.45-1.71,3.57-.28,7.22.73,10.84.75q29.94.12,59.87,0c5.28,0,10.56-.75,15.84-.85C461.21,962.12,462.55,963.32,463.87,964Z"/><path class="cls-19" d="M172.12,942.06c3.39,2,6.55,4.74,10.21,5.82,7.5,2.21,15.28,3.49,22.92,5.28.72.17,1.23,1.23,1.84,1.88-14-1.69-27.77-4.39-40.67-10.37-4-1.84-7-4.54-6.3-9.58L171,940.15Z"/><path class="cls-8" d="M527.77,961c-2.49.34-5,.65-7.47,1-1.84.29-3.68.67-5.52,1l-2,.05a61.26,61.26,0,0,0-8.68.07c-1.27.18-2.34,1.75-3.5,2.69l-8.7,0L486.8,963a87.9,87.9,0,0,1,9.56-1.61c9.9-.57,19.81-.91,29.71-1.27C526.62,960.11,527.2,960.7,527.77,961Z"/><path class="cls-8" d="M325.11,965.86c.06-3-2.08-2.75-4.13-2.84q-9.92-.42-19.83-1a6.68,6.68,0,0,1-2.16-1c3.89-.32,7.79-1.06,11.65-.88,8.06.38,16.09,1.23,24.13,2A8,8,0,0,1,337,963L328.05,966Z"/><path class="cls-8" d="M283,960a86.94,86.94,0,0,1-9,0c-4.68-.46-9.32-1.31-14-2C267.91,956.23,275.52,957.4,283,960Z"/><path class="cls-8" d="M565.72,958l-19,2c.2-.45.38-1.29.6-1.3C553.44,958.38,559.58,958.19,565.72,958Z"/><path class="cls-8" d="M592.69,955l-14,2C583,953.85,587.71,953.49,592.69,955Z"/><path class="cls-8" d="M247.08,957l-14-2C238.05,953.48,242.76,953.84,247.08,957Z"/><path class="cls-8" d="M352.9,965.89H348l-3-2.86c2.84-1.08,5.74-2.64,8,1C352.93,964.63,352.91,965.26,352.9,965.89Z"/><path class="cls-8" d="M612.66,952l-11,2Z"/><path class="cls-8" d="M481.82,963l-8,.94C476.09,960.45,479,961.9,481.82,963Z"/><path class="cls-8" d="M539.75,960l-5,.94Z"/><path class="cls-8" d="M627.65,949l-4,1Z"/><path class="cls-8" d="M291,961l-4-.93Z"/><path class="cls-8" d="M255.08,957.94l-3-.94Z"/><path class="cls-8" d="M573.72,957l-2,.94Z"/><path class="cls-8" d="M621.66,950l-2,.92Z"/><path class="cls-20" d="M210.15,952l-2.07-1Z"/><path class="cls-20" d="M199.17,949.94l-2.07-1Z"/><path class="cls-20" d="M635.66,947l-2.07.93Z"/><path class="cls-20" d="M192.17,948,190.1,947Z"/><path class="cls-8" d="M617.66,951l-2,1Z"/><path class="cls-20" d="M645.73,943.16l-2.15,1.78Z"/><path class="cls-20" d="M182.19,944.94,180,943.18C180.74,943.77,181.46,944.36,182.19,944.94Z"/><path class="cls-20" d="M654.63,940.91l-2.08,1Z"/><path class="cls-20" d="M172.12,942.06,171,940.15l2.16,1.78Z"/><path class="cls-8" d="M229.11,954.93l-2-.94Z"/><path class="cls-8" d="M598.68,954l-2,.94Z"/><path class="cls-12" d="M133.07,902.09c-.3,0-.61,0-.91,0l0-3,.11-.09C132.52,900.05,132.8,901.07,133.07,902.09Z"/><path class="cls-20" d="M648.7,942.13l-1,.94Z"/><path class="cls-18" d="M512.81,963.1l2-.05c4.38.31,8.78,1,13.14.85,8.57-.36,17.11-1.19,25.66-1.88,1.8-.15,3.61-.92,5.35-.75,2,.19,3.84,1.13,5.76,1.74,0,.35,0,.69,0,1l-9.94.06-6.06,1-1.93.1-13,.8-4,.18c-2.82,0-5.67-.19-8.47.07-1.21.11-2.34,1.15-3.51,1.76h-2l-2-.17L512.75,966Z"/><path class="cls-21" d="M628.67,961h3l4,0v2l-5,1h-5c-4,.45-8.54-2-12,2l-5,0-5,0-6-2.93v-1l3,0,8,1,6-1h4Z"/><path class="cls-5" d="M491.93,965.89l8.7,0,3.15,1.1c0,.38,0,.75,0,1.13l-30.07.71c1.19-.92,2.32-2.54,3.57-2.63C482.16,965.81,487.05,965.94,491.93,965.89Z"/><path class="cls-3" d="M546.8,965.21l1.93-.1,6,.95,14,1c-.32.55-.64,1.58-1,1.57-7-.12-14-.36-21-.58Z"/><path class="cls-21" d="M568.74,967.05l-14-1c0-.65,0-1.3,0-2l9.94-.06,4,.91,5.91,0,0,2.06Z"/><path class="cls-21" d="M546.8,965.21l0,2.83-13-.92V966Z"/><path class="cls-3" d="M651.64,964l-3,1h-10c0-1,0-2,0-3h13Z"/><path class="cls-3" d="M613.68,966c3.45-4,8-1.53,12-2v2Z"/><path class="cls-3" d="M597.7,963.09l6,2.93v1l-11,0c0-1,0-2,0-3Z"/><path class="cls-2" d="M625.67,966v-2h5l5,1h1C633.31,968.83,629.45,967,625.67,966Z"/><path class="cls-21" d="M592.71,964.05c0,1,0,2,0,3l-8-1,.06-2,1-1h4Z"/><path class="cls-3" d="M574.72,967.05l0-2.06,0-.11,5,.08,1.06.15C580.08,969.94,577.33,968.26,574.72,967.05Z"/><path class="cls-11" d="M580.75,965.11l-1.06-.15,0-3.89,6,.94v1c-.32.34-.64.69-1,1l-3,1.06-.49,0Z"/><path class="cls-21" d="M503.8,968.09c0-.38,0-.75,0-1.13l8-.06c0,.38,0,.76,0,1.14Z"/><path class="cls-22" d="M636.66,965h-1v-4h3v1c0,1,0,2,0,3Z"/><path class="cls-2" d="M603.69,967v-1l5,0C607.57,969.14,605.69,968.41,603.69,967Z"/><path class="cls-3" d="M515.78,968h2l2.59.54-.67,1.47Z"/><path class="cls-11" d="M533.75,966v1.11l-4-.93Z"/><path class="cls-3" d="M581.73,965.13l3-1.06-.06,2Z"/><path class="cls-5" d="M511.78,968c0-.38,0-.76,0-1.13l1-.92,1.06,1.86Z"/><path class="cls-23" d="M132.13,899.13l0,3c-14.14,0-28.34-.76-42.41.2-15.9,1.08-32.17,1.33-46.93,8.67A13.75,13.75,0,0,0,37,917.12a113.57,113.57,0,0,0-5.18,15c-1.45,4.88,3.88,12.93,9.77,15.89,11.6,5.82,24,8.07,36.8,9,10.69.8,21.37,1.91,32.06,2.8,2.4.2,4.83,0,7.25.08,11.43.34,22.87.73,34.3,1,.72,0,1.46-.61,2.19-.93h2l2,1h2l15,1h8v1c0,.67,0,1.33,0,2h-2a13,13,0,0,0-3.17-1c-10.44-.4-20.87-.77-31.31-1-15.93-.39-31.88-.28-47.78-1.13-15.16-.81-30.33-2.09-45.38-4.07-10.28-1.35-20-5.41-27.45-12.9-3.82-3.86-6.76-9-4.89-15.31,1.07-3.62,1.06-7.6,2.37-11.11A17.36,17.36,0,0,1,28.67,911c9.25-7.06,20.27-10.13,31.56-10.74,22.84-1.22,45.73-1.53,68.6-2.14A11.26,11.26,0,0,1,132.13,899.13Z"/><path class="cls-21" d="M210.08,961.05l8,1,4,1,10-.92,1,2v2l-3,0-12,0c-1.91-3.37-4.44-2.27-7-1h-6l-2-1h-2l-9-2c4.09-3.71,8.69-.57,13-1Z"/><path class="cls-2" d="M277,965.15l5.94.93,0,2c-6,.22-12,.46-18.05.59-.3,0-.63-1-.94-1.58l7-1Z"/><path class="cls-23" d="M192.07,962l9,2-1,2h-5l-5-1h-3c0-.66,0-1.33,0-2,.34-.67.67-1.34,1-2l1,0v0l1,1Z"/><path class="cls-23" d="M233.06,966c0-.66,0-1.32,0-2l2,0,2-1,5,1v2c-2.27,3.94-6,1.11-9,2C233.07,967.35,233.06,966.68,233.06,966Z"/><path class="cls-12" d="M256,964.13l3.91.09c0,.94,0,1.88.07,2.82-4.55,2.62-8.67-.42-13-1v-1Z"/><path class="cls-21" d="M260,967c0-.94,0-1.88-.07-2.82l11-.12.06,2-7,1Z"/><path class="cls-12" d="M200.09,966l1-2h2l2,1h6v1Z"/><path class="cls-21" d="M283,968l0-2,7.07-.16,2,1Z"/><path class="cls-21" d="M312.91,967l9.07,0c0,.36,0,.73,0,1.1s0,.66,0,1L313,968Z"/><path class="cls-23" d="M211.08,966v-1c2.57-1.28,5.1-2.38,7,1Z"/><path class="cls-5" d="M312.91,967,313,968,306,967C308.26,963.57,310.59,966.86,312.91,967Z"/><path class="cls-12" d="M187.1,963.05c0,.66,0,1.33,0,2h-4c0-.67,0-1.33,0-2Z"/><path class="cls-21" d="M247.05,965.06v1h-5v-2l5,0Z"/><path class="cls-12" d="M190.1,965l5,1C193.1,967.36,191.22,968.15,190.1,965Z"/><path class="cls-12" d="M233.06,966c0,.66,0,1.33,0,2l-3-2Z"/><path class="cls-22" d="M729.56,959c4.58-1,9.15-2,13.73-3,11.13-2.33,22.32-4.41,33.37-7.07,2.88-.69,5.68-2.76,7.93-4.83,4.47-4.11,4.76-8,1.87-13.27-1.2-2.18-2.7-4.34-3.28-6.7-2.32-9.46-9.5-12.76-17.88-14.06-10.74-1.67-21.58-2.67-32.36-4.11-1.19-.15-2.25-1.26-3.38-1.92l18-1,4,1h3c.62.64,1.14,1.72,1.86,1.87,5.63,1.18,11.37,1.89,16.93,3.32,6.73,1.75,12.72,4.71,15,12.22.89,3,2.29,5.84,3.39,8.78,3,7.9.85,13.88-6.76,17.48-4.73,2.23-9.85,3.63-14.72,5.59-1.37.55-2.46,1.77-3.67,2.68h-2l-4,1h-2l-3,1-19,2h-2Z"/><path class="cls-22" d="M668.62,959.05h8c5.51.13,11,.26,16.54.32.15,0,.3-.86.44-1.32h8l5,2c-2.55.33-5.13.5-7.63,1.06a23.76,23.76,0,0,0-4.37,1.93h-16l-10-1Z"/><path class="cls-3" d="M694.59,963A23.76,23.76,0,0,1,699,961.1c2.5-.56,5.08-.73,7.63-1.06h6v2Z"/><path class="cls-3" d="M729.56,959l5,1c-1.26.67-2.49,1.84-3.78,1.91-4.39.23-8.8.08-13.21.08,0-1,0-2,0-3h12Z"/><path class="cls-3" d="M668.62,962l10,1h-17v-2Z"/><path class="cls-22" d="M717.58,959c0,1,0,2,0,3h-5v-2Z"/><path class="cls-3" d="M658.63,963l-4,1v-3h4Z"/><path class="cls-22" d="M658.63,963v-2c0-.34,0-.67,0-1h3v3Z"/><path class="cls-22" d="M654.64,961.05v3h-3v-2Z"/><path class="cls-24" d="M766.53,956c1.21-.91,2.3-2.13,3.67-2.68,4.87-2,10-3.36,14.72-5.59,7.61-3.6,9.74-9.58,6.76-17.48-1.1-2.94-2.5-5.78-3.39-8.78-2.24-7.51-8.23-10.47-15-12.22-5.56-1.43-11.3-2.14-16.93-3.32-.72-.15-1.24-1.23-1.86-1.87,9.76,2.22,19.72,3.84,29.17,7,3.5,1.17,6.44,5.54,8.51,9.11,2.28,3.93,3.28,8.61,4.79,13,1.39,4-2.5,12.58-7.72,14.82C781.9,951.15,774.13,953.4,766.53,956Z"/><path class="cls-22" d="M724.57,904.1a24.42,24.42,0,0,1-4.63.95q-11.34.15-22.7,0a24.64,24.64,0,0,1-4.64-.94c.95-.67,1.88-1.9,2.83-1.92q13.16-.23,26.29,0C722.68,902.21,723.62,903.43,724.57,904.1Z"/><path class="cls-24" d="M760.53,957l4-1Z"/><path class="cls-24" d="M751.54,904.1l-4-1Z"/><path class="cls-24" d="M755.54,958l3-1Z"/><path class="cls-5" d="M322,968.08c0-.37,0-.74,0-1.1l3.13-1.12,2.94.09c.31.65.63,1.31.94,2Z"/><path class="cls-13" d="M175.12,962l-15-1,3-2h5l4,1h3Z"/><path class="cls-15" d="M175.12,962v-2h8v2Z"/><path class="cls-13" d="M183.11,962v-2l5,1c-.34.66-.67,1.33-1,2h-4Z"/><path class="cls-15" d="M163.13,959l-3,2h-2c0-1,0-2,0-3Z"/><path class="cls-13" d="M158.13,958.05c0,1,0,2,0,3l-2-1v-2Z"/><path class="cls-15" d="M172.13,960l-4-1Z"/><path class="cls-9" d="M210.08,961.05l-5,0Z"/><path class="cls-9" d="M235.07,964l-2,0-1-2c0-.35,0-.69,0-1h3Z"/><path class="cls-9" d="M222.09,963l-4-1Z"/><path class="cls-13" d="M190.14,962l-1-1Z"/><path class="cls-14" d="M638.65,961.05h-3l-4,0c.79-.65,1.51-1.78,2.36-1.89q23.9-3.14,47.83-6c1.53-.18,3.18.58,4.77.9v1c-4.61.67-9.23,1.31-13.83,2-1.41.22-2.77.65-4.16,1h-6l-5,1Z"/><path class="cls-17" d="M628.67,961l-10,1C621.65,958.24,625.2,960,628.67,961Z"/><path class="cls-17" d="M686.61,955v-1h1l7,1Z"/><path class="cls-17" d="M614.68,962l-6,1c0-1,0-2,0-3h2Z"/><path class="cls-17" d="M711.58,954.05l-11,1C703.94,951.25,707.8,953.05,711.58,954.05Z"/><path class="cls-17" d="M718.57,953.05l-4,1Z"/><path class="cls-22" d="M727.57,959h0Z"/><path class="cls-16" d="M693.6,958c-.14.46-.29,1.32-.44,1.32-5.51-.06-11-.19-16.54-.32Z"/><path class="cls-16" d="M662.64,958.05h6v4l-7-1v-1Z"/><path class="cls-9" d="M247.05,965.06V964l9,.14Z"/><path class="cls-11" d="M271,966.07l-.06-2,6.08,1Z"/><path class="cls-10" d="M235.07,964l0-3,2,2Z"/><path class="cls-11" d="M608.7,960.05c0,1,0,2,0,3l-8-1v-2h3Z"/><path class="cls-18" d="M585.7,962l-6-.94c0-.34,0-.68,0-1l14-1v2h-4Z"/><path class="cls-18" d="M574.69,965l-5.91,0-.06-2c.64-4.86,3.41-3.12,6-1.93l-.05,3.85Z"/><path class="cls-5" d="M574.67,964.88l.05-3.85,5-1c0,.34,0,.68,0,1l0,3.89Z"/><path class="cls-5" d="M593.69,961v-2h2l5,1v2l-3,0Z"/><path class="cls-11" d="M568.72,963l.06,2-4-.91c0-.34,0-.68,0-1Z"/><path class="cls-4" d="M512.75,966l-1,.92-8,.05-3.15-1.1c1.16-.94,2.23-2.51,3.5-2.69a61.26,61.26,0,0,1,8.68-.07Z"/><path class="cls-11" d="M554.79,964.1c0,.66,0,1.31,0,2l-6-.95Z"/><path class="cls-11" d="M593.69,961l4,1v1l-5,1-3-1v-2Z"/><path class="cls-3" d="M635.66,963v2l-5-1Z"/><path class="cls-21" d="M638.65,961.05l19-2c.33.33.66.67,1,1,0,.34,0,.67,0,1h-4l-3,1h-13Z"/><path class="cls-5" d="M589.7,961v2h-4v-1Z"/><path class="cls-23" d="M205.1,965l-2-1Z"/><path class="cls-15" d="M658.64,960c-.34-.33-.67-.67-1-1l5-1-1,2Z"/><g id="Ebene_2" data-name="Ebene 2"><g id="Ebene_1-2" data-name="Ebene 1-2"><polygon class="cls-25" points="416.46 309.01 501.25 336.24 552.25 406.92 550.01 494.04 495.35 564.35 409.17 590.98 324.39 563.75 273.38 493.07 275.63 405.94 330.29 335.63 416.46 309.01"/><rect class="cls-26" x="336.09" y="249.76" width="151.35" height="71.15"/><path class="cls-27" d="M348,305.34l-.12,7.63v0c0-.92-.07-1.84-.07-2.76A46.2,46.2,0,0,1,348,305.34Z"/><path class="cls-27" d="M348,305.34l-.12,7.63v0c0-.92-.07-1.84-.07-2.76A46.2,46.2,0,0,1,348,305.34Z"/><polygon class="cls-28" points="546.46 284.54 546.46 350.71 543.79 354.39 543.66 354.57 535.9 365.25 526.24 352.23 530.59 346.1 530.19 281.51 492.54 229 439.59 210.47 441.95 210.48 444.64 210.57 507.56 231.02 529.52 261.23 546.46 284.54"/><path class="cls-29" d="M535.88,365.25l-.81,1.12-9.59-13.1-1.45-2-12.2-16.63L501.08,320l-7.36-2.34-8.46-2.74-6.72-2.15-1.38-.44.19-13.81.11-7.6v-.76l-1.62-2.29-16.57-23.49L449,260.86h0l-6.51-2.22c-.63-.23-1.26-.45-1.9-.65l-11.1-3.82H397.26l-30.16,9.35-.44.6h0l-18.41,24.66L348,305.34q-.21,2.4-.21,4.86c0,.92,0,1.84.07,2.76l-5,1.65L335,317.19,326.42,320l-2.12.7-31.83,44.18-10.81-14.77V284l24.71-34.05.13-.18,14-19.3,6.05-2,20.91-6.78,36-11.7h2.29l38.09.33,15.73.14L492.53,229l37.66,52.51.4,64.59-4.35,6.13Z"/><path class="cls-27" d="M348,305.34l-.12,7.63v0c0-.92-.07-1.84-.07-2.76A46.2,46.2,0,0,1,348,305.34Z"/><path class="cls-27" d="M348,305.34l-.12,7.63v0c0-.92-.07-1.84-.07-2.76A46.2,46.2,0,0,1,348,305.34Z"/><path class="cls-27" d="M348,305.34l-.12,7.63v0c0-.92-.07-1.84-.07-2.76A46.2,46.2,0,0,1,348,305.34Z"/><polygon class="cls-28" points="556.47 487.96 524.72 532.05 502.14 563.41 413.83 592.52 383.27 582.73 478.82 551.23 538.79 469.56 538.95 371.62 540.86 374.23 550.21 386.99 550.4 387.25 556.07 394.98 556.2 426.33 556.47 487.96"/><path class="cls-30" d="M539,371.62l-.16,97.91-60,81.7-95.55,31.49-25.17-8.06-1.09-.34L325.29,564.2l-.53-.72h.12q7.37.63,14.91.63A171.13,171.13,0,0,0,510,411.93q.68-6.1.92-12.34h0q.12-3.36.13-6.77a173.79,173.79,0,0,0-.92-18q-.87-8.28-2.5-16.33-6.51-2.28-13.19-4c-3.49-.92-7-1.7-10.59-2.37a171.34,171.34,0,0,0-32.35-3.06h-.18a170.95,170.95,0,0,0-79.28,19.5q-5.9,3.07-11.5,6.61c-.85.53-1.71,1.07-2.55,1.63A171.51,171.51,0,0,0,281,503.74l-10.65-14.56-.4-93,22.5-31.29,31.84-44.17,2.11-.7L335,317.2l7.84-2.58,5-1.65a3.23,3.23,0,0,0,0,.44V313l32.38-10.67,32.36-10.65L445.12,302l32.07,10.27,1.38.44,6.69,2.17,8.45,2.77,7.36,2.34,10.75,14.67L524,351.32l1.45,2,9.59,13.1Z"/><path class="cls-27" d="M347.84,313v0Z"/><path class="cls-31" d="M421.1,421.1a171.55,171.55,0,0,0-106.86,128l-2-2.76A107.2,107.2,0,0,1,417.73,421C418.86,421,420,421.05,421.1,421.1Z"/><path class="cls-27" d="M348,305.34l-.12,7.63v0c0-.92-.07-1.84-.07-2.76A46.2,46.2,0,0,1,348,305.34Z"/><polygon class="cls-32" points="477.51 290.16 477.5 290.92 477.39 298.52 477.19 312.34 445.12 302.07 412.55 291.64 380.22 302.3 347.85 312.97 347.95 305.34 348.19 288.78 367.1 263.52 397.24 254.2 429.47 254.2 440.62 258 442.52 258.65 449.02 260.87 449.03 260.87 459.33 264.38 477.51 290.16"/><path class="cls-27" d="M348,305.34l-.12,7.63v0c0-.92-.07-1.84-.07-2.76A46.2,46.2,0,0,1,348,305.34Z"/><polygon class="cls-28" points="535.09 366.37 525.49 353.22 526.37 352.1 535.98 365.19 535.09 366.37"/></g></g><path class="cls-25" d="M314.41,691l14.5-48.12h14.68l-22.28,64H307.56l-22.19-64H300Z"/><path class="cls-25" d="M368.73,707.7q-10.46,0-17-6.42t-6.57-17.09V683a28.64,28.64,0,0,1,2.77-12.81,20.23,20.23,0,0,1,7.84-8.7,22,22,0,0,1,11.58-3.06q9.76,0,15.36,6.15T388.29,682v5.19H358a11.8,11.8,0,0,0,3.71,7.47,11.25,11.25,0,0,0,7.84,2.81q7.35,0,11.47-5.32l6.24,7a19.1,19.1,0,0,1-7.73,6.31A25.51,25.51,0,0,1,368.73,707.7Zm-1.45-39.07a8,8,0,0,0-6.13,2.56,13.25,13.25,0,0,0-3,7.33h17.67v-1a9.47,9.47,0,0,0-2.29-6.55A8.19,8.19,0,0,0,367.28,668.63Z"/><path class="cls-25" d="M393.65,682.69q0-10.94,5.2-17.62a16.9,16.9,0,0,1,14-6.68q7.83,0,12.18,5.36l.53-4.48h11.51v46a20.29,20.29,0,0,1-2.84,10.85,18.14,18.14,0,0,1-8,7,27.91,27.91,0,0,1-12,2.42,26.11,26.11,0,0,1-10.2-2.09,18,18,0,0,1-7.51-5.38l5.62-7.73a14.89,14.89,0,0,0,11.52,5.31c3.36,0,6-.9,7.86-2.7s2.81-4.36,2.81-7.67v-2.55a14.69,14.69,0,0,1-11.55,5,16.82,16.82,0,0,1-13.87-6.7q-5.29-6.71-5.29-17.78Zm12.7.95q0,6.47,2.59,10.14a8.23,8.23,0,0,0,7.12,3.68q5.81,0,8.3-4.36v-20q-2.53-4.37-8.21-4.36a8.31,8.31,0,0,0-7.19,3.74Q406.35,676.2,406.35,683.64Z"/><path class="cls-25" d="M474.42,706.82a14.11,14.11,0,0,1-1.28-4.26,15.34,15.34,0,0,1-12,5.14,16.9,16.9,0,0,1-11.58-4,13,13,0,0,1-4.6-10.2q0-7.56,5.61-11.6t16.19-4.09h5.85v-2.72a7.84,7.84,0,0,0-1.7-5.28q-1.68-2-5.33-2a7.62,7.62,0,0,0-5,1.53,5.26,5.26,0,0,0-1.82,4.22H446a12.74,12.74,0,0,1,2.55-7.64,16.85,16.85,0,0,1,7.21-5.52,26.28,26.28,0,0,1,10.45-2q8.79,0,14,4.42t5.16,12.41v20.61q0,6.78,1.89,10.24v.75ZM463.92,698a10.87,10.87,0,0,0,5.18-1.26,8.24,8.24,0,0,0,3.52-3.36V685.2h-4.75q-9.54,0-10.15,6.59l0,.75a5.07,5.07,0,0,0,1.67,3.91A6.5,6.5,0,0,0,463.92,698Z"/><path class="cls-25" d="M506.81,659.27l.39,5.49a16.63,16.63,0,0,1,13.67-6.37q7.56,0,11.25,4.44t3.78,13.27v30.72H523.2V676.41c0-2.7-.59-4.65-1.76-5.87s-3.12-1.82-5.84-1.82a8.74,8.74,0,0,0-8.05,4.57v33.53h-12.7V659.27Z"/><path class="cls-25" d="M313.75,778.48,325,741.05h11.41l-17.33,49.77h-10.7l-17.26-49.77h11.39Z"/><path class="cls-25" d="M340.41,744.27a4.88,4.88,0,0,1,1.48-3.66,6.4,6.4,0,0,1,8.09,0,5.23,5.23,0,0,1,0,7.35,6.35,6.35,0,0,1-8,0A4.83,4.83,0,0,1,340.41,744.27Zm10.49,46.55H341v-37h9.91Z"/><path class="cls-25" d="M370.86,744.75v9.09h6.32v7.24h-6.32v18.46a4.37,4.37,0,0,0,.79,2.94,3.94,3.94,0,0,0,3,.89,15.65,15.65,0,0,0,2.9-.24v7.49a20.42,20.42,0,0,1-6,.88q-10.4,0-10.6-10.49V761.08h-5.4v-7.24H361v-9.09Z"/><path class="cls-25" d="M404.12,790.82a10.68,10.68,0,0,1-1-3.32,12,12,0,0,1-9.33,4,13.11,13.11,0,0,1-9-3.14,10.12,10.12,0,0,1-3.57-7.93,10.43,10.43,0,0,1,4.36-9q4.35-3.15,12.59-3.18h4.55v-2.12a6.07,6.07,0,0,0-1.32-4.1,5.16,5.16,0,0,0-4.15-1.54,5.94,5.94,0,0,0-3.92,1.19,4.1,4.1,0,0,0-1.41,3.29H382a9.91,9.91,0,0,1,2-6,13.13,13.13,0,0,1,5.61-4.29,20.32,20.32,0,0,1,8.13-1.56q6.84,0,10.85,3.44t4,9.65v16c0,3.5.51,6.16,1.47,8v.58ZM396,784a8.6,8.6,0,0,0,4-1,6.49,6.49,0,0,0,2.74-2.62V774H399q-7.42,0-7.9,5.13l0,.58a4,4,0,0,0,1.29,3A5.06,5.06,0,0,0,396,784Z"/><path class="cls-25" d="M429.48,753.84l.31,4.13a13,13,0,0,1,10.63-4.82q7.14,0,9.81,5.64a12.69,12.69,0,0,1,11.11-5.64q6,0,9,3.51t2.94,10.54v23.62h-9.91V767.24a7,7,0,0,0-1.23-4.6c-.82-1-2.27-1.45-4.34-1.45a6.17,6.17,0,0,0-6.16,4.23l0,25.4h-9.88V767.27q0-3.21-1.26-4.65c-.85-1-2.28-1.43-4.31-1.43a6.4,6.4,0,0,0-6.08,3.48v26.15h-9.88v-37Z"/><path class="cls-25" d="M480.75,744.27a4.85,4.85,0,0,1,1.49-3.66,6.39,6.39,0,0,1,8.08,0,5.23,5.23,0,0,1,0,7.35,6.35,6.35,0,0,1-8,0A4.87,4.87,0,0,1,480.75,744.27Zm10.49,46.55h-9.91v-37h9.91Z"/><path class="cls-25" d="M508.47,753.84l.31,4.27a12.91,12.91,0,0,1,10.63-5q5.88,0,8.75,3.46t2.94,10.32v23.89h-9.88V767.17c0-2.1-.46-3.62-1.37-4.56s-2.43-1.42-4.54-1.42a6.79,6.79,0,0,0-6.26,3.55v26.08h-9.88v-37Z"/></svg>