<svg id="Ebene_1" data-name="Ebene 1" xmlns="http://www.w3.org/2000/svg" viewBox="0 0 1783 200"><defs><style>.cls-1,.cls-2,.cls-5{isolation:isolate;}.cls-2{font-size:60px;font-family:OpenSans-Bold, Open Sans;font-weight:700;}.cls-2,.cls-4,.cls-5{fill:#29b190;}.cls-3{fill:#a8dfd1;}.cls-5{font-size:40px;font-family:OpenSans-Semibold, Open Sans;font-weight:600;}</style></defs><title>Zeitstrahl</title><g id="_2016" data-name=" 2016" class="cls-1"><text class="cls-2" transform="translate(144.34 123)">2016</text></g><g id="_2017" data-name=" 2017" class="cls-1"><text class="cls-2" transform="translate(599.34 123)">2017</text></g><g id="_2018" data-name=" 2018" class="cls-1"><text class="cls-2" transform="translate(1056.34 123)">2018</text></g><g id="_2019" data-name=" 2019" class="cls-1"><text class="cls-2" transform="translate(1511.34 123)">2019</text></g><path id="Rechteck_3" data-name="Rechteck 3" class="cls-3" d="M5.34,19h1772a5,5,0,0,1,5,5h0a5,5,0,0,1-5,5H5.34a5,5,0,0,1-5-5h0A5,5,0,0,1,5.34,19Z"/><ellipse id="Ellipse_1" data-name="Ellipse 1" class="cls-4" cx="212.34" cy="25" rx="21.5" ry="22"/><ellipse id="Ellipse_3" data-name="Ellipse 3" class="cls-4" cx="667.34" cy="25" rx="21.5" ry="22"/><ellipse id="Ellipse_7" data-name="Ellipse 7" class="cls-4" cx="1124.34" cy="25" rx="21.5" ry="22"/><ellipse id="Ellipse_6" data-name="Ellipse 6" class="cls-4" cx="1579.34" cy="25" rx="21.5" ry="22"/><g id="Gründungsjahr" class="cls-1"><text class="cls-5" transform="translate(67.6 188)">Gründungsjahr</text></g><g id="Neue_Produkte" data-name="Neue Produkte" class="cls-1"><text class="cls-5" transform="translate(522.62 188)">Neue Produkte</text></g><g id="Firmenvergrößerung" class="cls-1"><text class="cls-5" transform="translate(929.36 188)">Firmenvergrößerung</text></g><g id="Verkaufshoch" class="cls-1"><text class="cls-5" transform="translate(1453.52 188)">Verkaufshoch</text></g></svg>